<svg class="matrix" viewBox="0 0 196 196" version="1.1" xmlns="http://www.w3.org/2000/svg"><g><g class="matrixHighlights"><!-- react-text: 116 --><!-- /react-text --><!-- react-text: 117 --> <!-- /react-text --><!-- react-text: 118 --> <!-- /react-text --></g><g><rect class="wordrect" x="29" y="29" width="2" height="2" fill="black"></rect><rect class="wordrect" x="29" y="180" width="2" height="2" fill="black"></rect><rect class="wordrect" x="180" y="29" width="2" height="2" fill="black"></rect><rect class="wordrect" x="180" y="180" width="2" height="2" fill="black"></rect><rect class="wordrect" x="0" y="0" width="1" height="1" fill="black"></rect><rect class="wordrect" x="0" y="129" width="1" height="1" fill="black"></rect><rect class="wordrect" x="1" y="1" width="1" height="1" fill="black"></rect><rect class="wordrect" x="1" y="130" width="1" height="1" fill="black"></rect><rect class="wordrect" x="2" y="2" width="1" height="1" fill="black"></rect><rect class="wordrect" x="2" y="131" width="1" height="1" fill="black"></rect><rect class="wordrect" x="3" y="3" width="1" height="1" fill="black"></rect><rect class="wordrect" x="3" y="132" width="1" height="1" fill="black"></rect><rect class="wordrect" x="4" y="4" width="1" height="1" fill="black"></rect><rect class="wordrect" x="4" y="133" width="1" height="1" fill="black"></rect><rect class="wordrect" x="5" y="5" width="1" height="1" fill="black"></rect><rect class="wordrect" x="6" y="6" width="1" height="1" fill="black"></rect><rect class="wordrect" x="7" y="7" width="1" height="1" fill="black"></rect><rect class="wordrect" x="8" y="8" width="1" height="1" fill="black"></rect><rect class="wordrect" x="9" y="9" width="1" height="1" fill="black"></rect><rect class="wordrect" x="10" y="10" width="1" height="1" fill="black"></rect><rect class="wordrect" x="11" y="11" width="1" height="1" fill="black"></rect><rect class="wordrect" x="12" y="12" width="1" height="1" fill="black"></rect><rect class="wordrect" x="13" y="13" width="1" height="1" fill="black"></rect><rect class="wordrect" x="14" y="14" width="1" height="1" fill="black"></rect><rect class="wordrect" x="15" y="15" width="1" height="1" fill="black"></rect><rect class="wordrect" x="16" y="16" width="1" height="1" fill="black"></rect><rect class="wordrect" x="16" y="167" width="1" height="1" fill="black"></rect><rect class="wordrect" x="17" y="17" width="1" height="1" fill="black"></rect><rect class="wordrect" x="17" y="20" width="1" height="1" fill="black"></rect><rect class="wordrect" x="17" y="168" width="1" height="1" fill="black"></rect><rect class="wordrect" x="17" y="171" width="1" height="1" fill="black"></rect><rect class="wordrect" x="18" y="18" width="1" height="1" fill="black"></rect><rect class="wordrect" x="18" y="169" width="1" height="1" fill="black"></rect><rect class="wordrect" x="19" y="19" width="1" height="1" fill="black"></rect><rect class="wordrect" x="19" y="170" width="1" height="1" fill="black"></rect><rect class="wordrect" x="20" y="17" width="1" height="1" fill="black"></rect><rect class="wordrect" x="20" y="20" width="1" height="1" fill="black"></rect><rect class="wordrect" x="20" y="168" width="1" height="1" fill="black"></rect><rect class="wordrect" x="20" y="171" width="1" height="1" fill="black"></rect><rect class="wordrect" x="21" y="21" width="1" height="1" fill="black"></rect><rect class="wordrect" x="21" y="172" width="1" height="1" fill="black"></rect><rect class="wordrect" x="22" y="22" width="1" height="1" fill="black"></rect><rect class="wordrect" x="22" y="173" width="1" height="1" fill="black"></rect><rect class="wordrect" x="23" y="23" width="1" height="1" fill="black"></rect><rect class="wordrect" x="23" y="174" width="1" height="1" fill="black"></rect><rect class="wordrect" x="24" y="24" width="1" height="1" fill="black"></rect><rect class="wordrect" x="24" y="175" width="1" height="1" fill="black"></rect><rect class="wordrect" x="25" y="25" width="1" height="1" fill="black"></rect><rect class="wordrect" x="25" y="176" width="1" height="1" fill="black"></rect><rect class="wordrect" x="26" y="26" width="1" height="1" fill="black"></rect><rect class="wordrect" x="26" y="177" width="1" height="1" fill="black"></rect><rect class="wordrect" x="27" y="27" width="1" height="1" fill="black"></rect><rect class="wordrect" x="27" y="178" width="1" height="1" fill="black"></rect><rect class="wordrect" x="28" y="28" width="1" height="1" fill="black"></rect><rect class="wordrect" x="28" y="179" width="1" height="1" fill="black"></rect><rect class="wordrect" x="30" y="33" width="1" height="1" fill="black"></rect><rect class="wordrect" x="30" y="184" width="1" height="1" fill="black"></rect><rect class="wordrect" x="31" y="31" width="1" height="1" fill="black"></rect><rect class="wordrect" x="31" y="34" width="1" height="1" fill="black"></rect><rect class="wordrect" x="31" y="182" width="1" height="1" fill="black"></rect><rect class="wordrect" x="31" y="185" width="1" height="1" fill="black"></rect><rect class="wordrect" x="32" y="32" width="1" height="1" fill="black"></rect><rect class="wordrect" x="32" y="183" width="1" height="1" fill="black"></rect><rect class="wordrect" x="33" y="30" width="1" height="1" fill="black"></rect><rect class="wordrect" x="33" y="33" width="1" height="1" fill="black"></rect><rect class="wordrect" x="33" y="181" width="1" height="1" fill="black"></rect><rect class="wordrect" x="33" y="184" width="1" height="1" fill="black"></rect><rect class="wordrect" x="34" y="31" width="1" height="1" fill="black"></rect><rect class="wordrect" x="34" y="34" width="1" height="1" fill="black"></rect><rect class="wordrect" x="34" y="182" width="1" height="1" fill="black"></rect><rect class="wordrect" x="34" y="185" width="1" height="1" fill="black"></rect><rect class="wordrect" x="35" y="35" width="1" height="1" fill="black"></rect><rect class="wordrect" x="35" y="186" width="1" height="1" fill="black"></rect><rect class="wordrect" x="36" y="36" width="1" height="1" fill="black"></rect><rect class="wordrect" x="36" y="187" width="1" height="1" fill="black"></rect><rect class="wordrect" x="37" y="37" width="1" height="1" fill="black"></rect><rect class="wordrect" x="38" y="38" width="1" height="1" fill="black"></rect><rect class="wordrect" x="39" y="39" width="1" height="1" fill="black"></rect><rect class="wordrect" x="40" y="40" width="1" height="1" fill="black"></rect><rect class="wordrect" x="41" y="41" width="1" height="1" fill="black"></rect><rect class="wordrect" x="42" y="42" width="1" height="1" fill="black"></rect><rect class="wordrect" x="43" y="43" width="1" height="1" fill="black"></rect><rect class="wordrect" x="44" y="44" width="1" height="1" fill="black"></rect><rect class="wordrect" x="45" y="45" width="1" height="1" fill="black"></rect><rect class="wordrect" x="46" y="46" width="1" height="1" fill="black"></rect><rect class="wordrect" x="47" y="47" width="1" height="1" fill="black"></rect><rect class="wordrect" x="48" y="48" width="1" height="1" fill="black"></rect><rect class="wordrect" x="49" y="49" width="1" height="1" fill="black"></rect><rect class="wordrect" x="50" y="50" width="1" height="1" fill="black"></rect><rect class="wordrect" x="51" y="51" width="1" height="1" fill="black"></rect><rect class="wordrect" x="52" y="52" width="1" height="1" fill="black"></rect><rect class="wordrect" x="53" y="53" width="1" height="1" fill="black"></rect><rect class="wordrect" x="54" y="54" width="1" height="1" fill="black"></rect><rect class="wordrect" x="55" y="55" width="1" height="1" fill="black"></rect><rect class="wordrect" x="55" y="66" width="1" height="1" fill="black"></rect><rect class="wordrect" x="56" y="56" width="1" height="1" fill="black"></rect><rect class="wordrect" x="56" y="67" width="1" height="1" fill="black"></rect><rect class="wordrect" x="57" y="57" width="1" height="1" fill="black"></rect><rect class="wordrect" x="58" y="58" width="1" height="1" fill="black"></rect><rect class="wordrect" x="58" y="142" width="1" height="1" fill="black"></rect><rect class="wordrect" x="59" y="59" width="1" height="1" fill="black"></rect><rect class="wordrect" x="59" y="62" width="1" height="1" fill="black"></rect><rect class="wordrect" x="59" y="68" width="1" height="1" fill="black"></rect><rect class="wordrect" x="60" y="60" width="1" height="1" fill="black"></rect><rect class="wordrect" x="60" y="63" width="1" height="1" fill="black"></rect><rect class="wordrect" x="60" y="69" width="1" height="1" fill="black"></rect><rect class="wordrect" x="61" y="61" width="1" height="1" fill="black"></rect><rect class="wordrect" x="61" y="70" width="1" height="1" fill="black"></rect><rect class="wordrect" x="62" y="59" width="1" height="1" fill="black"></rect><rect class="wordrect" x="62" y="62" width="1" height="1" fill="black"></rect><rect class="wordrect" x="62" y="68" width="1" height="1" fill="black"></rect><rect class="wordrect" x="63" y="60" width="1" height="1" fill="black"></rect><rect class="wordrect" x="63" y="63" width="1" height="1" fill="black"></rect><rect class="wordrect" x="63" y="69" width="1" height="1" fill="black"></rect><rect class="wordrect" x="64" y="64" width="1" height="1" fill="black"></rect><rect class="wordrect" x="65" y="65" width="1" height="1" fill="black"></rect><rect class="wordrect" x="65" y="150" width="1" height="1" fill="black"></rect><rect class="wordrect" x="66" y="55" width="1" height="1" fill="black"></rect><rect class="wordrect" x="66" y="66" width="1" height="1" fill="black"></rect><rect class="wordrect" x="66" y="151" width="1" height="1" fill="black"></rect><rect class="wordrect" x="67" y="56" width="1" height="1" fill="black"></rect><rect class="wordrect" x="67" y="67" width="1" height="1" fill="black"></rect><rect class="wordrect" x="68" y="59" width="1" height="1" fill="black"></rect><rect class="wordrect" x="68" y="62" width="1" height="1" fill="black"></rect><rect class="wordrect" x="68" y="68" width="1" height="1" fill="black"></rect><rect class="wordrect" x="69" y="60" width="1" height="1" fill="black"></rect><rect class="wordrect" x="69" y="63" width="1" height="1" fill="black"></rect><rect class="wordrect" x="69" y="69" width="1" height="1" fill="black"></rect><rect class="wordrect" x="70" y="61" width="1" height="1" fill="black"></rect><rect class="wordrect" x="70" y="70" width="1" height="1" fill="black"></rect><rect class="wordrect" x="71" y="71" width="1" height="1" fill="black"></rect><rect class="wordrect" x="72" y="72" width="1" height="1" fill="black"></rect><rect class="wordrect" x="73" y="73" width="1" height="1" fill="black"></rect><rect class="wordrect" x="74" y="74" width="1" height="1" fill="black"></rect><rect class="wordrect" x="75" y="75" width="1" height="1" fill="black"></rect><rect class="wordrect" x="75" y="78" width="1" height="1" fill="black"></rect><rect class="wordrect" x="75" y="102" width="1" height="1" fill="black"></rect><rect class="wordrect" x="75" y="105" width="1" height="1" fill="black"></rect><rect class="wordrect" x="75" y="159" width="1" height="1" fill="black"></rect><rect class="wordrect" x="75" y="162" width="1" height="1" fill="black"></rect><rect class="wordrect" x="75" y="188" width="1" height="1" fill="black"></rect><rect class="wordrect" x="75" y="191" width="1" height="1" fill="black"></rect><rect class="wordrect" x="76" y="76" width="1" height="1" fill="black"></rect><rect class="wordrect" x="76" y="79" width="1" height="1" fill="black"></rect><rect class="wordrect" x="76" y="103" width="1" height="1" fill="black"></rect><rect class="wordrect" x="76" y="106" width="1" height="1" fill="black"></rect><rect class="wordrect" x="76" y="160" width="1" height="1" fill="black"></rect><rect class="wordrect" x="76" y="163" width="1" height="1" fill="black"></rect><rect class="wordrect" x="76" y="189" width="1" height="1" fill="black"></rect><rect class="wordrect" x="76" y="192" width="1" height="1" fill="black"></rect><rect class="wordrect" x="77" y="77" width="1" height="1" fill="black"></rect><rect class="wordrect" x="77" y="104" width="1" height="1" fill="black"></rect><rect class="wordrect" x="77" y="161" width="1" height="1" fill="black"></rect><rect class="wordrect" x="77" y="190" width="1" height="1" fill="black"></rect><rect class="wordrect" x="78" y="75" width="1" height="1" fill="black"></rect><rect class="wordrect" x="78" y="78" width="1" height="1" fill="black"></rect><rect class="wordrect" x="78" y="102" width="1" height="1" fill="black"></rect><rect class="wordrect" x="78" y="105" width="1" height="1" fill="black"></rect><rect class="wordrect" x="78" y="159" width="1" height="1" fill="black"></rect><rect class="wordrect" x="78" y="162" width="1" height="1" fill="black"></rect><rect class="wordrect" x="78" y="188" width="1" height="1" fill="black"></rect><rect class="wordrect" x="78" y="191" width="1" height="1" fill="black"></rect><rect class="wordrect" x="79" y="76" width="1" height="1" fill="black"></rect><rect class="wordrect" x="79" y="79" width="1" height="1" fill="black"></rect><rect class="wordrect" x="79" y="103" width="1" height="1" fill="black"></rect><rect class="wordrect" x="79" y="106" width="1" height="1" fill="black"></rect><rect class="wordrect" x="79" y="160" width="1" height="1" fill="black"></rect><rect class="wordrect" x="79" y="163" width="1" height="1" fill="black"></rect><rect class="wordrect" x="79" y="189" width="1" height="1" fill="black"></rect><rect class="wordrect" x="79" y="192" width="1" height="1" fill="black"></rect><rect class="wordrect" x="80" y="80" width="1" height="1" fill="black"></rect><rect class="wordrect" x="80" y="107" width="1" height="1" fill="black"></rect><rect class="wordrect" x="80" y="164" width="1" height="1" fill="black"></rect><rect class="wordrect" x="80" y="193" width="1" height="1" fill="black"></rect><rect class="wordrect" x="81" y="81" width="1" height="1" fill="black"></rect><rect class="wordrect" x="81" y="108" width="1" height="1" fill="black"></rect><rect class="wordrect" x="81" y="165" width="1" height="1" fill="black"></rect><rect class="wordrect" x="81" y="194" width="1" height="1" fill="black"></rect><rect class="wordrect" x="82" y="82" width="1" height="1" fill="black"></rect><rect class="wordrect" x="82" y="109" width="1" height="1" fill="black"></rect><rect class="wordrect" x="82" y="166" width="1" height="1" fill="black"></rect><rect class="wordrect" x="82" y="195" width="1" height="1" fill="black"></rect><rect class="wordrect" x="83" y="83" width="1" height="1" fill="black"></rect><rect class="wordrect" x="83" y="87" width="1" height="1" fill="black"></rect><rect class="wordrect" x="83" y="95" width="1" height="1" fill="black"></rect><rect class="wordrect" x="83" y="110" width="1" height="1" fill="black"></rect><rect class="wordrect" x="83" y="114" width="1" height="1" fill="black"></rect><rect class="wordrect" x="83" y="122" width="1" height="1" fill="black"></rect><rect class="wordrect" x="84" y="84" width="1" height="1" fill="black"></rect><rect class="wordrect" x="84" y="88" width="1" height="1" fill="black"></rect><rect class="wordrect" x="84" y="96" width="1" height="1" fill="black"></rect><rect class="wordrect" x="84" y="111" width="1" height="1" fill="black"></rect><rect class="wordrect" x="84" y="115" width="1" height="1" fill="black"></rect><rect class="wordrect" x="84" y="123" width="1" height="1" fill="black"></rect><rect class="wordrect" x="85" y="85" width="1" height="1" fill="black"></rect><rect class="wordrect" x="85" y="112" width="1" height="1" fill="black"></rect><rect class="wordrect" x="86" y="86" width="1" height="1" fill="black"></rect><rect class="wordrect" x="86" y="113" width="1" height="1" fill="black"></rect><rect class="wordrect" x="87" y="83" width="1" height="1" fill="black"></rect><rect class="wordrect" x="87" y="87" width="1" height="1" fill="black"></rect><rect class="wordrect" x="87" y="95" width="1" height="1" fill="black"></rect><rect class="wordrect" x="87" y="110" width="1" height="1" fill="black"></rect><rect class="wordrect" x="87" y="114" width="1" height="1" fill="black"></rect><rect class="wordrect" x="87" y="122" width="1" height="1" fill="black"></rect><rect class="wordrect" x="88" y="84" width="1" height="1" fill="black"></rect><rect class="wordrect" x="88" y="88" width="1" height="1" fill="black"></rect><rect class="wordrect" x="88" y="96" width="1" height="1" fill="black"></rect><rect class="wordrect" x="88" y="111" width="1" height="1" fill="black"></rect><rect class="wordrect" x="88" y="115" width="1" height="1" fill="black"></rect><rect class="wordrect" x="88" y="123" width="1" height="1" fill="black"></rect><rect class="wordrect" x="89" y="89" width="1" height="1" fill="black"></rect><rect class="wordrect" x="89" y="116" width="1" height="1" fill="black"></rect><rect class="wordrect" x="90" y="90" width="1" height="1" fill="black"></rect><rect class="wordrect" x="90" y="117" width="1" height="1" fill="black"></rect><rect class="wordrect" x="91" y="91" width="1" height="1" fill="black"></rect><rect class="wordrect" x="91" y="118" width="1" height="1" fill="black"></rect><rect class="wordrect" x="92" y="92" width="1" height="1" fill="black"></rect><rect class="wordrect" x="92" y="119" width="1" height="1" fill="black"></rect><rect class="wordrect" x="93" y="93" width="1" height="1" fill="black"></rect><rect class="wordrect" x="93" y="120" width="1" height="1" fill="black"></rect><rect class="wordrect" x="94" y="94" width="1" height="1" fill="black"></rect><rect class="wordrect" x="94" y="121" width="1" height="1" fill="black"></rect><rect class="wordrect" x="95" y="83" width="1" height="1" fill="black"></rect><rect class="wordrect" x="95" y="87" width="1" height="1" fill="black"></rect><rect class="wordrect" x="95" y="95" width="1" height="1" fill="black"></rect><rect class="wordrect" x="95" y="110" width="1" height="1" fill="black"></rect><rect class="wordrect" x="95" y="114" width="1" height="1" fill="black"></rect><rect class="wordrect" x="95" y="122" width="1" height="1" fill="black"></rect><rect class="wordrect" x="96" y="84" width="1" height="1" fill="black"></rect><rect class="wordrect" x="96" y="88" width="1" height="1" fill="black"></rect><rect class="wordrect" x="96" y="96" width="1" height="1" fill="black"></rect><rect class="wordrect" x="96" y="111" width="1" height="1" fill="black"></rect><rect class="wordrect" x="96" y="115" width="1" height="1" fill="black"></rect><rect class="wordrect" x="96" y="123" width="1" height="1" fill="black"></rect><rect class="wordrect" x="97" y="97" width="1" height="1" fill="black"></rect><rect class="wordrect" x="97" y="124" width="1" height="1" fill="black"></rect><rect class="wordrect" x="98" y="98" width="1" height="1" fill="black"></rect><rect class="wordrect" x="98" y="125" width="1" height="1" fill="black"></rect><rect class="wordrect" x="99" y="99" width="1" height="1" fill="black"></rect><rect class="wordrect" x="99" y="126" width="1" height="1" fill="black"></rect><rect class="wordrect" x="99" y="156" width="1" height="1" fill="black"></rect><rect class="wordrect" x="100" y="100" width="1" height="1" fill="black"></rect><rect class="wordrect" x="100" y="127" width="1" height="1" fill="black"></rect><rect class="wordrect" x="100" y="157" width="1" height="1" fill="black"></rect><rect class="wordrect" x="101" y="101" width="1" height="1" fill="black"></rect><rect class="wordrect" x="101" y="128" width="1" height="1" fill="black"></rect><rect class="wordrect" x="101" y="158" width="1" height="1" fill="black"></rect><rect class="wordrect" x="102" y="75" width="1" height="1" fill="black"></rect><rect class="wordrect" x="102" y="78" width="1" height="1" fill="black"></rect><rect class="wordrect" x="102" y="102" width="1" height="1" fill="black"></rect><rect class="wordrect" x="102" y="105" width="1" height="1" fill="black"></rect><rect class="wordrect" x="102" y="159" width="1" height="1" fill="black"></rect><rect class="wordrect" x="102" y="162" width="1" height="1" fill="black"></rect><rect class="wordrect" x="102" y="188" width="1" height="1" fill="black"></rect><rect class="wordrect" x="102" y="191" width="1" height="1" fill="black"></rect><rect class="wordrect" x="103" y="76" width="1" height="1" fill="black"></rect><rect class="wordrect" x="103" y="79" width="1" height="1" fill="black"></rect><rect class="wordrect" x="103" y="103" width="1" height="1" fill="black"></rect><rect class="wordrect" x="103" y="106" width="1" height="1" fill="black"></rect><rect class="wordrect" x="103" y="160" width="1" height="1" fill="black"></rect><rect class="wordrect" x="103" y="163" width="1" height="1" fill="black"></rect><rect class="wordrect" x="103" y="189" width="1" height="1" fill="black"></rect><rect class="wordrect" x="103" y="192" width="1" height="1" fill="black"></rect><rect class="wordrect" x="104" y="77" width="1" height="1" fill="black"></rect><rect class="wordrect" x="104" y="104" width="1" height="1" fill="black"></rect><rect class="wordrect" x="104" y="161" width="1" height="1" fill="black"></rect><rect class="wordrect" x="104" y="190" width="1" height="1" fill="black"></rect><rect class="wordrect" x="105" y="75" width="1" height="1" fill="black"></rect><rect class="wordrect" x="105" y="78" width="1" height="1" fill="black"></rect><rect class="wordrect" x="105" y="102" width="1" height="1" fill="black"></rect><rect class="wordrect" x="105" y="105" width="1" height="1" fill="black"></rect><rect class="wordrect" x="105" y="159" width="1" height="1" fill="black"></rect><rect class="wordrect" x="105" y="162" width="1" height="1" fill="black"></rect><rect class="wordrect" x="105" y="188" width="1" height="1" fill="black"></rect><rect class="wordrect" x="105" y="191" width="1" height="1" fill="black"></rect><rect class="wordrect" x="106" y="76" width="1" height="1" fill="black"></rect><rect class="wordrect" x="106" y="79" width="1" height="1" fill="black"></rect><rect class="wordrect" x="106" y="103" width="1" height="1" fill="black"></rect><rect class="wordrect" x="106" y="106" width="1" height="1" fill="black"></rect><rect class="wordrect" x="106" y="160" width="1" height="1" fill="black"></rect><rect class="wordrect" x="106" y="163" width="1" height="1" fill="black"></rect><rect class="wordrect" x="106" y="189" width="1" height="1" fill="black"></rect><rect class="wordrect" x="106" y="192" width="1" height="1" fill="black"></rect><rect class="wordrect" x="107" y="80" width="1" height="1" fill="black"></rect><rect class="wordrect" x="107" y="107" width="1" height="1" fill="black"></rect><rect class="wordrect" x="107" y="164" width="1" height="1" fill="black"></rect><rect class="wordrect" x="107" y="193" width="1" height="1" fill="black"></rect><rect class="wordrect" x="108" y="81" width="1" height="1" fill="black"></rect><rect class="wordrect" x="108" y="108" width="1" height="1" fill="black"></rect><rect class="wordrect" x="108" y="165" width="1" height="1" fill="black"></rect><rect class="wordrect" x="108" y="194" width="1" height="1" fill="black"></rect><rect class="wordrect" x="109" y="82" width="1" height="1" fill="black"></rect><rect class="wordrect" x="109" y="109" width="1" height="1" fill="black"></rect><rect class="wordrect" x="109" y="166" width="1" height="1" fill="black"></rect><rect class="wordrect" x="109" y="195" width="1" height="1" fill="black"></rect><rect class="wordrect" x="110" y="83" width="1" height="1" fill="black"></rect><rect class="wordrect" x="110" y="87" width="1" height="1" fill="black"></rect><rect class="wordrect" x="110" y="95" width="1" height="1" fill="black"></rect><rect class="wordrect" x="110" y="110" width="1" height="1" fill="black"></rect><rect class="wordrect" x="110" y="114" width="1" height="1" fill="black"></rect><rect class="wordrect" x="110" y="122" width="1" height="1" fill="black"></rect><rect class="wordrect" x="111" y="84" width="1" height="1" fill="black"></rect><rect class="wordrect" x="111" y="88" width="1" height="1" fill="black"></rect><rect class="wordrect" x="111" y="96" width="1" height="1" fill="black"></rect><rect class="wordrect" x="111" y="111" width="1" height="1" fill="black"></rect><rect class="wordrect" x="111" y="115" width="1" height="1" fill="black"></rect><rect class="wordrect" x="111" y="123" width="1" height="1" fill="black"></rect><rect class="wordrect" x="112" y="85" width="1" height="1" fill="black"></rect><rect class="wordrect" x="112" y="112" width="1" height="1" fill="black"></rect><rect class="wordrect" x="113" y="86" width="1" height="1" fill="black"></rect><rect class="wordrect" x="113" y="113" width="1" height="1" fill="black"></rect><rect class="wordrect" x="114" y="83" width="1" height="1" fill="black"></rect><rect class="wordrect" x="114" y="87" width="1" height="1" fill="black"></rect><rect class="wordrect" x="114" y="95" width="1" height="1" fill="black"></rect><rect class="wordrect" x="114" y="110" width="1" height="1" fill="black"></rect><rect class="wordrect" x="114" y="114" width="1" height="1" fill="black"></rect><rect class="wordrect" x="114" y="122" width="1" height="1" fill="black"></rect><rect class="wordrect" x="115" y="84" width="1" height="1" fill="black"></rect><rect class="wordrect" x="115" y="88" width="1" height="1" fill="black"></rect><rect class="wordrect" x="115" y="96" width="1" height="1" fill="black"></rect><rect class="wordrect" x="115" y="111" width="1" height="1" fill="black"></rect><rect class="wordrect" x="115" y="115" width="1" height="1" fill="black"></rect><rect class="wordrect" x="115" y="123" width="1" height="1" fill="black"></rect><rect class="wordrect" x="116" y="89" width="1" height="1" fill="black"></rect><rect class="wordrect" x="116" y="116" width="1" height="1" fill="black"></rect><rect class="wordrect" x="117" y="90" width="1" height="1" fill="black"></rect><rect class="wordrect" x="117" y="117" width="1" height="1" fill="black"></rect><rect class="wordrect" x="118" y="91" width="1" height="1" fill="black"></rect><rect class="wordrect" x="118" y="118" width="1" height="1" fill="black"></rect><rect class="wordrect" x="119" y="92" width="1" height="1" fill="black"></rect><rect class="wordrect" x="119" y="119" width="1" height="1" fill="black"></rect><rect class="wordrect" x="120" y="93" width="1" height="1" fill="black"></rect><rect class="wordrect" x="120" y="120" width="1" height="1" fill="black"></rect><rect class="wordrect" x="121" y="94" width="1" height="1" fill="black"></rect><rect class="wordrect" x="121" y="121" width="1" height="1" fill="black"></rect><rect class="wordrect" x="122" y="83" width="1" height="1" fill="black"></rect><rect class="wordrect" x="122" y="87" width="1" height="1" fill="black"></rect><rect class="wordrect" x="122" y="95" width="1" height="1" fill="black"></rect><rect class="wordrect" x="122" y="110" width="1" height="1" fill="black"></rect><rect class="wordrect" x="122" y="114" width="1" height="1" fill="black"></rect><rect class="wordrect" x="122" y="122" width="1" height="1" fill="black"></rect><rect class="wordrect" x="123" y="84" width="1" height="1" fill="black"></rect><rect class="wordrect" x="123" y="88" width="1" height="1" fill="black"></rect><rect class="wordrect" x="123" y="96" width="1" height="1" fill="black"></rect><rect class="wordrect" x="123" y="111" width="1" height="1" fill="black"></rect><rect class="wordrect" x="123" y="115" width="1" height="1" fill="black"></rect><rect class="wordrect" x="123" y="123" width="1" height="1" fill="black"></rect><rect class="wordrect" x="124" y="97" width="1" height="1" fill="black"></rect><rect class="wordrect" x="124" y="124" width="1" height="1" fill="black"></rect><rect class="wordrect" x="125" y="98" width="1" height="1" fill="black"></rect><rect class="wordrect" x="125" y="125" width="1" height="1" fill="black"></rect><rect class="wordrect" x="126" y="99" width="1" height="1" fill="black"></rect><rect class="wordrect" x="126" y="126" width="1" height="1" fill="black"></rect><rect class="wordrect" x="126" y="156" width="1" height="1" fill="black"></rect><rect class="wordrect" x="127" y="100" width="1" height="1" fill="black"></rect><rect class="wordrect" x="127" y="127" width="1" height="1" fill="black"></rect><rect class="wordrect" x="127" y="157" width="1" height="1" fill="black"></rect><rect class="wordrect" x="128" y="101" width="1" height="1" fill="black"></rect><rect class="wordrect" x="128" y="128" width="1" height="1" fill="black"></rect><rect class="wordrect" x="128" y="158" width="1" height="1" fill="black"></rect><rect class="wordrect" x="129" y="0" width="1" height="1" fill="black"></rect><rect class="wordrect" x="129" y="129" width="1" height="1" fill="black"></rect><rect class="wordrect" x="130" y="1" width="1" height="1" fill="black"></rect><rect class="wordrect" x="130" y="130" width="1" height="1" fill="black"></rect><rect class="wordrect" x="131" y="2" width="1" height="1" fill="black"></rect><rect class="wordrect" x="131" y="131" width="1" height="1" fill="black"></rect><rect class="wordrect" x="132" y="3" width="1" height="1" fill="black"></rect><rect class="wordrect" x="132" y="132" width="1" height="1" fill="black"></rect><rect class="wordrect" x="133" y="4" width="1" height="1" fill="black"></rect><rect class="wordrect" x="133" y="133" width="1" height="1" fill="black"></rect><rect class="wordrect" x="134" y="134" width="1" height="1" fill="black"></rect><rect class="wordrect" x="135" y="135" width="1" height="1" fill="black"></rect><rect class="wordrect" x="136" y="136" width="1" height="1" fill="black"></rect><rect class="wordrect" x="137" y="137" width="1" height="1" fill="black"></rect><rect class="wordrect" x="137" y="139" width="1" height="1" fill="black"></rect><rect class="wordrect" x="138" y="138" width="1" height="1" fill="black"></rect><rect class="wordrect" x="139" y="137" width="1" height="1" fill="black"></rect><rect class="wordrect" x="139" y="139" width="1" height="1" fill="black"></rect><rect class="wordrect" x="140" y="140" width="1" height="1" fill="black"></rect><rect class="wordrect" x="141" y="141" width="1" height="1" fill="black"></rect><rect class="wordrect" x="142" y="58" width="1" height="1" fill="black"></rect><rect class="wordrect" x="142" y="142" width="1" height="1" fill="black"></rect><rect class="wordrect" x="143" y="143" width="1" height="1" fill="black"></rect><rect class="wordrect" x="144" y="144" width="1" height="1" fill="black"></rect><rect class="wordrect" x="144" y="152" width="1" height="1" fill="black"></rect><rect class="wordrect" x="145" y="145" width="1" height="1" fill="black"></rect><rect class="wordrect" x="146" y="146" width="1" height="1" fill="black"></rect><rect class="wordrect" x="147" y="147" width="1" height="1" fill="black"></rect><rect class="wordrect" x="148" y="148" width="1" height="1" fill="black"></rect><rect class="wordrect" x="149" y="149" width="1" height="1" fill="black"></rect><rect class="wordrect" x="150" y="65" width="1" height="1" fill="black"></rect><rect class="wordrect" x="150" y="150" width="1" height="1" fill="black"></rect><rect class="wordrect" x="151" y="66" width="1" height="1" fill="black"></rect><rect class="wordrect" x="151" y="151" width="1" height="1" fill="black"></rect><rect class="wordrect" x="152" y="144" width="1" height="1" fill="black"></rect><rect class="wordrect" x="152" y="152" width="1" height="1" fill="black"></rect><rect class="wordrect" x="153" y="153" width="1" height="1" fill="black"></rect><rect class="wordrect" x="154" y="154" width="1" height="1" fill="black"></rect><rect class="wordrect" x="155" y="155" width="1" height="1" fill="black"></rect><rect class="wordrect" x="156" y="99" width="1" height="1" fill="black"></rect><rect class="wordrect" x="156" y="126" width="1" height="1" fill="black"></rect><rect class="wordrect" x="156" y="156" width="1" height="1" fill="black"></rect><rect class="wordrect" x="157" y="100" width="1" height="1" fill="black"></rect><rect class="wordrect" x="157" y="127" width="1" height="1" fill="black"></rect><rect class="wordrect" x="157" y="157" width="1" height="1" fill="black"></rect><rect class="wordrect" x="158" y="101" width="1" height="1" fill="black"></rect><rect class="wordrect" x="158" y="128" width="1" height="1" fill="black"></rect><rect class="wordrect" x="158" y="158" width="1" height="1" fill="black"></rect><rect class="wordrect" x="159" y="75" width="1" height="1" fill="black"></rect><rect class="wordrect" x="159" y="78" width="1" height="1" fill="black"></rect><rect class="wordrect" x="159" y="102" width="1" height="1" fill="black"></rect><rect class="wordrect" x="159" y="105" width="1" height="1" fill="black"></rect><rect class="wordrect" x="159" y="159" width="1" height="1" fill="black"></rect><rect class="wordrect" x="159" y="162" width="1" height="1" fill="black"></rect><rect class="wordrect" x="159" y="188" width="1" height="1" fill="black"></rect><rect class="wordrect" x="159" y="191" width="1" height="1" fill="black"></rect><rect class="wordrect" x="160" y="76" width="1" height="1" fill="black"></rect><rect class="wordrect" x="160" y="79" width="1" height="1" fill="black"></rect><rect class="wordrect" x="160" y="103" width="1" height="1" fill="black"></rect><rect class="wordrect" x="160" y="106" width="1" height="1" fill="black"></rect><rect class="wordrect" x="160" y="160" width="1" height="1" fill="black"></rect><rect class="wordrect" x="160" y="163" width="1" height="1" fill="black"></rect><rect class="wordrect" x="160" y="189" width="1" height="1" fill="black"></rect><rect class="wordrect" x="160" y="192" width="1" height="1" fill="black"></rect><rect class="wordrect" x="161" y="77" width="1" height="1" fill="black"></rect><rect class="wordrect" x="161" y="104" width="1" height="1" fill="black"></rect><rect class="wordrect" x="161" y="161" width="1" height="1" fill="black"></rect><rect class="wordrect" x="161" y="190" width="1" height="1" fill="black"></rect><rect class="wordrect" x="162" y="75" width="1" height="1" fill="black"></rect><rect class="wordrect" x="162" y="78" width="1" height="1" fill="black"></rect><rect class="wordrect" x="162" y="102" width="1" height="1" fill="black"></rect><rect class="wordrect" x="162" y="105" width="1" height="1" fill="black"></rect><rect class="wordrect" x="162" y="159" width="1" height="1" fill="black"></rect><rect class="wordrect" x="162" y="162" width="1" height="1" fill="black"></rect><rect class="wordrect" x="162" y="188" width="1" height="1" fill="black"></rect><rect class="wordrect" x="162" y="191" width="1" height="1" fill="black"></rect><rect class="wordrect" x="163" y="76" width="1" height="1" fill="black"></rect><rect class="wordrect" x="163" y="79" width="1" height="1" fill="black"></rect><rect class="wordrect" x="163" y="103" width="1" height="1" fill="black"></rect><rect class="wordrect" x="163" y="106" width="1" height="1" fill="black"></rect><rect class="wordrect" x="163" y="160" width="1" height="1" fill="black"></rect><rect class="wordrect" x="163" y="163" width="1" height="1" fill="black"></rect><rect class="wordrect" x="163" y="189" width="1" height="1" fill="black"></rect><rect class="wordrect" x="163" y="192" width="1" height="1" fill="black"></rect><rect class="wordrect" x="164" y="80" width="1" height="1" fill="black"></rect><rect class="wordrect" x="164" y="107" width="1" height="1" fill="black"></rect><rect class="wordrect" x="164" y="164" width="1" height="1" fill="black"></rect><rect class="wordrect" x="164" y="193" width="1" height="1" fill="black"></rect><rect class="wordrect" x="165" y="81" width="1" height="1" fill="black"></rect><rect class="wordrect" x="165" y="108" width="1" height="1" fill="black"></rect><rect class="wordrect" x="165" y="165" width="1" height="1" fill="black"></rect><rect class="wordrect" x="165" y="194" width="1" height="1" fill="black"></rect><rect class="wordrect" x="166" y="82" width="1" height="1" fill="black"></rect><rect class="wordrect" x="166" y="109" width="1" height="1" fill="black"></rect><rect class="wordrect" x="166" y="166" width="1" height="1" fill="black"></rect><rect class="wordrect" x="166" y="195" width="1" height="1" fill="black"></rect><rect class="wordrect" x="167" y="16" width="1" height="1" fill="black"></rect><rect class="wordrect" x="167" y="167" width="1" height="1" fill="black"></rect><rect class="wordrect" x="168" y="17" width="1" height="1" fill="black"></rect><rect class="wordrect" x="168" y="20" width="1" height="1" fill="black"></rect><rect class="wordrect" x="168" y="168" width="1" height="1" fill="black"></rect><rect class="wordrect" x="168" y="171" width="1" height="1" fill="black"></rect><rect class="wordrect" x="169" y="18" width="1" height="1" fill="black"></rect><rect class="wordrect" x="169" y="169" width="1" height="1" fill="black"></rect><rect class="wordrect" x="170" y="19" width="1" height="1" fill="black"></rect><rect class="wordrect" x="170" y="170" width="1" height="1" fill="black"></rect><rect class="wordrect" x="171" y="17" width="1" height="1" fill="black"></rect><rect class="wordrect" x="171" y="20" width="1" height="1" fill="black"></rect><rect class="wordrect" x="171" y="168" width="1" height="1" fill="black"></rect><rect class="wordrect" x="171" y="171" width="1" height="1" fill="black"></rect><rect class="wordrect" x="172" y="21" width="1" height="1" fill="black"></rect><rect class="wordrect" x="172" y="172" width="1" height="1" fill="black"></rect><rect class="wordrect" x="173" y="22" width="1" height="1" fill="black"></rect><rect class="wordrect" x="173" y="173" width="1" height="1" fill="black"></rect><rect class="wordrect" x="174" y="23" width="1" height="1" fill="black"></rect><rect class="wordrect" x="174" y="174" width="1" height="1" fill="black"></rect><rect class="wordrect" x="175" y="24" width="1" height="1" fill="black"></rect><rect class="wordrect" x="175" y="175" width="1" height="1" fill="black"></rect><rect class="wordrect" x="176" y="25" width="1" height="1" fill="black"></rect><rect class="wordrect" x="176" y="176" width="1" height="1" fill="black"></rect><rect class="wordrect" x="177" y="26" width="1" height="1" fill="black"></rect><rect class="wordrect" x="177" y="177" width="1" height="1" fill="black"></rect><rect class="wordrect" x="178" y="27" width="1" height="1" fill="black"></rect><rect class="wordrect" x="178" y="178" width="1" height="1" fill="black"></rect><rect class="wordrect" x="179" y="28" width="1" height="1" fill="black"></rect><rect class="wordrect" x="179" y="179" width="1" height="1" fill="black"></rect><rect class="wordrect" x="181" y="33" width="1" height="1" fill="black"></rect><rect class="wordrect" x="181" y="184" width="1" height="1" fill="black"></rect><rect class="wordrect" x="182" y="31" width="1" height="1" fill="black"></rect><rect class="wordrect" x="182" y="34" width="1" height="1" fill="black"></rect><rect class="wordrect" x="182" y="182" width="1" height="1" fill="black"></rect><rect class="wordrect" x="182" y="185" width="1" height="1" fill="black"></rect><rect class="wordrect" x="183" y="32" width="1" height="1" fill="black"></rect><rect class="wordrect" x="183" y="183" width="1" height="1" fill="black"></rect><rect class="wordrect" x="184" y="30" width="1" height="1" fill="black"></rect><rect class="wordrect" x="184" y="33" width="1" height="1" fill="black"></rect><rect class="wordrect" x="184" y="181" width="1" height="1" fill="black"></rect><rect class="wordrect" x="184" y="184" width="1" height="1" fill="black"></rect><rect class="wordrect" x="185" y="31" width="1" height="1" fill="black"></rect><rect class="wordrect" x="185" y="34" width="1" height="1" fill="black"></rect><rect class="wordrect" x="185" y="182" width="1" height="1" fill="black"></rect><rect class="wordrect" x="185" y="185" width="1" height="1" fill="black"></rect><rect class="wordrect" x="186" y="35" width="1" height="1" fill="black"></rect><rect class="wordrect" x="186" y="186" width="1" height="1" fill="black"></rect><rect class="wordrect" x="187" y="36" width="1" height="1" fill="black"></rect><rect class="wordrect" x="187" y="187" width="1" height="1" fill="black"></rect><rect class="wordrect" x="188" y="75" width="1" height="1" fill="black"></rect><rect class="wordrect" x="188" y="78" width="1" height="1" fill="black"></rect><rect class="wordrect" x="188" y="102" width="1" height="1" fill="black"></rect><rect class="wordrect" x="188" y="105" width="1" height="1" fill="black"></rect><rect class="wordrect" x="188" y="159" width="1" height="1" fill="black"></rect><rect class="wordrect" x="188" y="162" width="1" height="1" fill="black"></rect><rect class="wordrect" x="188" y="188" width="1" height="1" fill="black"></rect><rect class="wordrect" x="188" y="191" width="1" height="1" fill="black"></rect><rect class="wordrect" x="189" y="76" width="1" height="1" fill="black"></rect><rect class="wordrect" x="189" y="79" width="1" height="1" fill="black"></rect><rect class="wordrect" x="189" y="103" width="1" height="1" fill="black"></rect><rect class="wordrect" x="189" y="106" width="1" height="1" fill="black"></rect><rect class="wordrect" x="189" y="160" width="1" height="1" fill="black"></rect><rect class="wordrect" x="189" y="163" width="1" height="1" fill="black"></rect><rect class="wordrect" x="189" y="189" width="1" height="1" fill="black"></rect><rect class="wordrect" x="189" y="192" width="1" height="1" fill="black"></rect><rect class="wordrect" x="190" y="77" width="1" height="1" fill="black"></rect><rect class="wordrect" x="190" y="104" width="1" height="1" fill="black"></rect><rect class="wordrect" x="190" y="161" width="1" height="1" fill="black"></rect><rect class="wordrect" x="190" y="190" width="1" height="1" fill="black"></rect><rect class="wordrect" x="191" y="75" width="1" height="1" fill="black"></rect><rect class="wordrect" x="191" y="78" width="1" height="1" fill="black"></rect><rect class="wordrect" x="191" y="102" width="1" height="1" fill="black"></rect><rect class="wordrect" x="191" y="105" width="1" height="1" fill="black"></rect><rect class="wordrect" x="191" y="159" width="1" height="1" fill="black"></rect><rect class="wordrect" x="191" y="162" width="1" height="1" fill="black"></rect><rect class="wordrect" x="191" y="188" width="1" height="1" fill="black"></rect><rect class="wordrect" x="191" y="191" width="1" height="1" fill="black"></rect><rect class="wordrect" x="192" y="76" width="1" height="1" fill="black"></rect><rect class="wordrect" x="192" y="79" width="1" height="1" fill="black"></rect><rect class="wordrect" x="192" y="103" width="1" height="1" fill="black"></rect><rect class="wordrect" x="192" y="106" width="1" height="1" fill="black"></rect><rect class="wordrect" x="192" y="160" width="1" height="1" fill="black"></rect><rect class="wordrect" x="192" y="163" width="1" height="1" fill="black"></rect><rect class="wordrect" x="192" y="189" width="1" height="1" fill="black"></rect><rect class="wordrect" x="192" y="192" width="1" height="1" fill="black"></rect><rect class="wordrect" x="193" y="80" width="1" height="1" fill="black"></rect><rect class="wordrect" x="193" y="107" width="1" height="1" fill="black"></rect><rect class="wordrect" x="193" y="164" width="1" height="1" fill="black"></rect><rect class="wordrect" x="193" y="193" width="1" height="1" fill="black"></rect><rect class="wordrect" x="194" y="81" width="1" height="1" fill="black"></rect><rect class="wordrect" x="194" y="108" width="1" height="1" fill="black"></rect><rect class="wordrect" x="194" y="165" width="1" height="1" fill="black"></rect><rect class="wordrect" x="194" y="194" width="1" height="1" fill="black"></rect><rect class="wordrect" x="195" y="82" width="1" height="1" fill="black"></rect><rect class="wordrect" x="195" y="109" width="1" height="1" fill="black"></rect><rect class="wordrect" x="195" y="166" width="1" height="1" fill="black"></rect><rect class="wordrect" x="195" y="195" width="1" height="1" fill="black"></rect></g></g></svg>