<svg class="matrix" viewBox="0 0 113 113" version="1.1" xmlns="http://www.w3.org/2000/svg"><g><g class="matrixHighlights"><!-- react-text: 116 --><!-- /react-text --><!-- react-text: 117 --> <!-- /react-text --><!-- react-text: 118 --> <!-- /react-text --></g><g><rect class="wordrect" x="0" y="0" width="1" height="1" fill="black"></rect><rect class="wordrect" x="0" y="45" width="1" height="1" fill="black"></rect><rect class="wordrect" x="0" y="56" width="1" height="1" fill="black"></rect><rect class="wordrect" x="0" y="61" width="1" height="1" fill="black"></rect><rect class="wordrect" x="0" y="88" width="1" height="1" fill="black"></rect><rect class="wordrect" x="0" y="103" width="1" height="1" fill="black"></rect><rect class="wordrect" x="0" y="108" width="1" height="1" fill="black"></rect><rect class="wordrect" x="1" y="1" width="1" height="1" fill="black"></rect><rect class="wordrect" x="1" y="46" width="1" height="1" fill="black"></rect><rect class="wordrect" x="1" y="57" width="1" height="1" fill="black"></rect><rect class="wordrect" x="1" y="62" width="1" height="1" fill="black"></rect><rect class="wordrect" x="1" y="77" width="1" height="1" fill="black"></rect><rect class="wordrect" x="1" y="96" width="1" height="1" fill="black"></rect><rect class="wordrect" x="1" y="104" width="1" height="1" fill="black"></rect><rect class="wordrect" x="1" y="109" width="1" height="1" fill="black"></rect><rect class="wordrect" x="2" y="2" width="1" height="1" fill="black"></rect><rect class="wordrect" x="2" y="8" width="1" height="1" fill="black"></rect><rect class="wordrect" x="2" y="47" width="1" height="1" fill="black"></rect><rect class="wordrect" x="2" y="53" width="1" height="1" fill="black"></rect><rect class="wordrect" x="3" y="3" width="1" height="1" fill="black"></rect><rect class="wordrect" x="3" y="9" width="1" height="1" fill="black"></rect><rect class="wordrect" x="3" y="48" width="1" height="1" fill="black"></rect><rect class="wordrect" x="3" y="54" width="1" height="1" fill="black"></rect><rect class="wordrect" x="4" y="4" width="1" height="1" fill="black"></rect><rect class="wordrect" x="4" y="10" width="1" height="1" fill="black"></rect><rect class="wordrect" x="4" y="12" width="1" height="1" fill="black"></rect><rect class="wordrect" x="4" y="16" width="1" height="1" fill="black"></rect><rect class="wordrect" x="4" y="26" width="1" height="1" fill="black"></rect><rect class="wordrect" x="4" y="35" width="1" height="1" fill="black"></rect><rect class="wordrect" x="4" y="49" width="1" height="1" fill="black"></rect><rect class="wordrect" x="4" y="55" width="1" height="1" fill="black"></rect><rect class="wordrect" x="4" y="60" width="1" height="1" fill="black"></rect><rect class="wordrect" x="4" y="65" width="1" height="1" fill="black"></rect><rect class="wordrect" x="4" y="107" width="1" height="1" fill="black"></rect><rect class="wordrect" x="4" y="112" width="1" height="1" fill="black"></rect><rect class="wordrect" x="5" y="5" width="1" height="1" fill="black"></rect><rect class="wordrect" x="5" y="50" width="1" height="1" fill="black"></rect><rect class="wordrect" x="6" y="6" width="1" height="1" fill="black"></rect><rect class="wordrect" x="6" y="51" width="1" height="1" fill="black"></rect><rect class="wordrect" x="6" y="94" width="1" height="1" fill="black"></rect><rect class="wordrect" x="7" y="7" width="1" height="1" fill="black"></rect><rect class="wordrect" x="7" y="52" width="1" height="1" fill="black"></rect><rect class="wordrect" x="8" y="2" width="1" height="1" fill="black"></rect><rect class="wordrect" x="8" y="8" width="1" height="1" fill="black"></rect><rect class="wordrect" x="8" y="47" width="1" height="1" fill="black"></rect><rect class="wordrect" x="8" y="53" width="1" height="1" fill="black"></rect><rect class="wordrect" x="9" y="3" width="1" height="1" fill="black"></rect><rect class="wordrect" x="9" y="9" width="1" height="1" fill="black"></rect><rect class="wordrect" x="9" y="48" width="1" height="1" fill="black"></rect><rect class="wordrect" x="9" y="54" width="1" height="1" fill="black"></rect><rect class="wordrect" x="10" y="4" width="1" height="1" fill="black"></rect><rect class="wordrect" x="10" y="10" width="1" height="1" fill="black"></rect><rect class="wordrect" x="10" y="12" width="1" height="1" fill="black"></rect><rect class="wordrect" x="10" y="16" width="1" height="1" fill="black"></rect><rect class="wordrect" x="10" y="26" width="1" height="1" fill="black"></rect><rect class="wordrect" x="10" y="35" width="1" height="1" fill="black"></rect><rect class="wordrect" x="10" y="49" width="1" height="1" fill="black"></rect><rect class="wordrect" x="10" y="55" width="1" height="1" fill="black"></rect><rect class="wordrect" x="10" y="60" width="1" height="1" fill="black"></rect><rect class="wordrect" x="10" y="65" width="1" height="1" fill="black"></rect><rect class="wordrect" x="10" y="107" width="1" height="1" fill="black"></rect><rect class="wordrect" x="10" y="112" width="1" height="1" fill="black"></rect><rect class="wordrect" x="11" y="11" width="1" height="1" fill="black"></rect><rect class="wordrect" x="11" y="25" width="1" height="1" fill="black"></rect><rect class="wordrect" x="11" y="34" width="1" height="1" fill="black"></rect><rect class="wordrect" x="12" y="4" width="1" height="1" fill="black"></rect><rect class="wordrect" x="12" y="10" width="1" height="1" fill="black"></rect><rect class="wordrect" x="12" y="12" width="1" height="1" fill="black"></rect><rect class="wordrect" x="12" y="16" width="1" height="1" fill="black"></rect><rect class="wordrect" x="12" y="26" width="1" height="1" fill="black"></rect><rect class="wordrect" x="12" y="35" width="1" height="1" fill="black"></rect><rect class="wordrect" x="12" y="49" width="1" height="1" fill="black"></rect><rect class="wordrect" x="12" y="55" width="1" height="1" fill="black"></rect><rect class="wordrect" x="12" y="60" width="1" height="1" fill="black"></rect><rect class="wordrect" x="12" y="65" width="1" height="1" fill="black"></rect><rect class="wordrect" x="12" y="107" width="1" height="1" fill="black"></rect><rect class="wordrect" x="12" y="112" width="1" height="1" fill="black"></rect><rect class="wordrect" x="13" y="13" width="1" height="1" fill="black"></rect><rect class="wordrect" x="14" y="14" width="1" height="1" fill="black"></rect><rect class="wordrect" x="14" y="21" width="1" height="1" fill="black"></rect><rect class="wordrect" x="14" y="81" width="1" height="1" fill="black"></rect><rect class="wordrect" x="14" y="93" width="1" height="1" fill="black"></rect><rect class="wordrect" x="15" y="15" width="1" height="1" fill="black"></rect><rect class="wordrect" x="16" y="4" width="1" height="1" fill="black"></rect><rect class="wordrect" x="16" y="10" width="1" height="1" fill="black"></rect><rect class="wordrect" x="16" y="12" width="1" height="1" fill="black"></rect><rect class="wordrect" x="16" y="16" width="1" height="1" fill="black"></rect><rect class="wordrect" x="16" y="26" width="1" height="1" fill="black"></rect><rect class="wordrect" x="16" y="35" width="1" height="1" fill="black"></rect><rect class="wordrect" x="16" y="49" width="1" height="1" fill="black"></rect><rect class="wordrect" x="16" y="55" width="1" height="1" fill="black"></rect><rect class="wordrect" x="16" y="60" width="1" height="1" fill="black"></rect><rect class="wordrect" x="16" y="65" width="1" height="1" fill="black"></rect><rect class="wordrect" x="16" y="107" width="1" height="1" fill="black"></rect><rect class="wordrect" x="16" y="112" width="1" height="1" fill="black"></rect><rect class="wordrect" x="17" y="17" width="1" height="1" fill="black"></rect><rect class="wordrect" x="18" y="18" width="1" height="1" fill="black"></rect><rect class="wordrect" x="18" y="69" width="1" height="1" fill="black"></rect><rect class="wordrect" x="18" y="100" width="1" height="1" fill="black"></rect><rect class="wordrect" x="19" y="19" width="1" height="1" fill="black"></rect><rect class="wordrect" x="20" y="20" width="1" height="1" fill="black"></rect><rect class="wordrect" x="21" y="14" width="1" height="1" fill="black"></rect><rect class="wordrect" x="21" y="21" width="1" height="1" fill="black"></rect><rect class="wordrect" x="21" y="81" width="1" height="1" fill="black"></rect><rect class="wordrect" x="21" y="93" width="1" height="1" fill="black"></rect><rect class="wordrect" x="22" y="22" width="1" height="1" fill="black"></rect><rect class="wordrect" x="23" y="23" width="1" height="1" fill="black"></rect><rect class="wordrect" x="24" y="24" width="1" height="1" fill="black"></rect><rect class="wordrect" x="25" y="11" width="1" height="1" fill="black"></rect><rect class="wordrect" x="25" y="25" width="1" height="1" fill="black"></rect><rect class="wordrect" x="25" y="34" width="1" height="1" fill="black"></rect><rect class="wordrect" x="26" y="4" width="1" height="1" fill="black"></rect><rect class="wordrect" x="26" y="10" width="1" height="1" fill="black"></rect><rect class="wordrect" x="26" y="12" width="1" height="1" fill="black"></rect><rect class="wordrect" x="26" y="16" width="1" height="1" fill="black"></rect><rect class="wordrect" x="26" y="26" width="1" height="1" fill="black"></rect><rect class="wordrect" x="26" y="35" width="1" height="1" fill="black"></rect><rect class="wordrect" x="26" y="49" width="1" height="1" fill="black"></rect><rect class="wordrect" x="26" y="55" width="1" height="1" fill="black"></rect><rect class="wordrect" x="26" y="60" width="1" height="1" fill="black"></rect><rect class="wordrect" x="26" y="65" width="1" height="1" fill="black"></rect><rect class="wordrect" x="26" y="107" width="1" height="1" fill="black"></rect><rect class="wordrect" x="26" y="112" width="1" height="1" fill="black"></rect><rect class="wordrect" x="27" y="27" width="1" height="1" fill="black"></rect><rect class="wordrect" x="27" y="31" width="1" height="1" fill="black"></rect><rect class="wordrect" x="28" y="28" width="1" height="1" fill="black"></rect><rect class="wordrect" x="29" y="29" width="1" height="1" fill="black"></rect><rect class="wordrect" x="30" y="30" width="1" height="1" fill="black"></rect><rect class="wordrect" x="31" y="27" width="1" height="1" fill="black"></rect><rect class="wordrect" x="31" y="31" width="1" height="1" fill="black"></rect><rect class="wordrect" x="32" y="32" width="1" height="1" fill="black"></rect><rect class="wordrect" x="33" y="33" width="1" height="1" fill="black"></rect><rect class="wordrect" x="34" y="11" width="1" height="1" fill="black"></rect><rect class="wordrect" x="34" y="25" width="1" height="1" fill="black"></rect><rect class="wordrect" x="34" y="34" width="1" height="1" fill="black"></rect><rect class="wordrect" x="35" y="4" width="1" height="1" fill="black"></rect><rect class="wordrect" x="35" y="10" width="1" height="1" fill="black"></rect><rect class="wordrect" x="35" y="12" width="1" height="1" fill="black"></rect><rect class="wordrect" x="35" y="16" width="1" height="1" fill="black"></rect><rect class="wordrect" x="35" y="26" width="1" height="1" fill="black"></rect><rect class="wordrect" x="35" y="35" width="1" height="1" fill="black"></rect><rect class="wordrect" x="35" y="49" width="1" height="1" fill="black"></rect><rect class="wordrect" x="35" y="55" width="1" height="1" fill="black"></rect><rect class="wordrect" x="35" y="60" width="1" height="1" fill="black"></rect><rect class="wordrect" x="35" y="65" width="1" height="1" fill="black"></rect><rect class="wordrect" x="35" y="107" width="1" height="1" fill="black"></rect><rect class="wordrect" x="35" y="112" width="1" height="1" fill="black"></rect><rect class="wordrect" x="36" y="36" width="1" height="1" fill="black"></rect><rect class="wordrect" x="37" y="37" width="1" height="1" fill="black"></rect><rect class="wordrect" x="38" y="38" width="1" height="1" fill="black"></rect><rect class="wordrect" x="39" y="39" width="1" height="1" fill="black"></rect><rect class="wordrect" x="40" y="40" width="1" height="1" fill="black"></rect><rect class="wordrect" x="41" y="41" width="1" height="1" fill="black"></rect><rect class="wordrect" x="42" y="42" width="1" height="1" fill="black"></rect><rect class="wordrect" x="43" y="43" width="1" height="1" fill="black"></rect><rect class="wordrect" x="44" y="44" width="1" height="1" fill="black"></rect><rect class="wordrect" x="45" y="0" width="1" height="1" fill="black"></rect><rect class="wordrect" x="45" y="45" width="1" height="1" fill="black"></rect><rect class="wordrect" x="45" y="56" width="1" height="1" fill="black"></rect><rect class="wordrect" x="45" y="61" width="1" height="1" fill="black"></rect><rect class="wordrect" x="45" y="88" width="1" height="1" fill="black"></rect><rect class="wordrect" x="45" y="103" width="1" height="1" fill="black"></rect><rect class="wordrect" x="45" y="108" width="1" height="1" fill="black"></rect><rect class="wordrect" x="46" y="1" width="1" height="1" fill="black"></rect><rect class="wordrect" x="46" y="46" width="1" height="1" fill="black"></rect><rect class="wordrect" x="46" y="57" width="1" height="1" fill="black"></rect><rect class="wordrect" x="46" y="62" width="1" height="1" fill="black"></rect><rect class="wordrect" x="46" y="77" width="1" height="1" fill="black"></rect><rect class="wordrect" x="46" y="96" width="1" height="1" fill="black"></rect><rect class="wordrect" x="46" y="104" width="1" height="1" fill="black"></rect><rect class="wordrect" x="46" y="109" width="1" height="1" fill="black"></rect><rect class="wordrect" x="47" y="2" width="1" height="1" fill="black"></rect><rect class="wordrect" x="47" y="8" width="1" height="1" fill="black"></rect><rect class="wordrect" x="47" y="47" width="1" height="1" fill="black"></rect><rect class="wordrect" x="47" y="53" width="1" height="1" fill="black"></rect><rect class="wordrect" x="48" y="3" width="1" height="1" fill="black"></rect><rect class="wordrect" x="48" y="9" width="1" height="1" fill="black"></rect><rect class="wordrect" x="48" y="48" width="1" height="1" fill="black"></rect><rect class="wordrect" x="48" y="54" width="1" height="1" fill="black"></rect><rect class="wordrect" x="49" y="4" width="1" height="1" fill="black"></rect><rect class="wordrect" x="49" y="10" width="1" height="1" fill="black"></rect><rect class="wordrect" x="49" y="12" width="1" height="1" fill="black"></rect><rect class="wordrect" x="49" y="16" width="1" height="1" fill="black"></rect><rect class="wordrect" x="49" y="26" width="1" height="1" fill="black"></rect><rect class="wordrect" x="49" y="35" width="1" height="1" fill="black"></rect><rect class="wordrect" x="49" y="49" width="1" height="1" fill="black"></rect><rect class="wordrect" x="49" y="55" width="1" height="1" fill="black"></rect><rect class="wordrect" x="49" y="60" width="1" height="1" fill="black"></rect><rect class="wordrect" x="49" y="65" width="1" height="1" fill="black"></rect><rect class="wordrect" x="49" y="107" width="1" height="1" fill="black"></rect><rect class="wordrect" x="49" y="112" width="1" height="1" fill="black"></rect><rect class="wordrect" x="50" y="5" width="1" height="1" fill="black"></rect><rect class="wordrect" x="50" y="50" width="1" height="1" fill="black"></rect><rect class="wordrect" x="51" y="6" width="1" height="1" fill="black"></rect><rect class="wordrect" x="51" y="51" width="1" height="1" fill="black"></rect><rect class="wordrect" x="51" y="94" width="1" height="1" fill="black"></rect><rect class="wordrect" x="52" y="7" width="1" height="1" fill="black"></rect><rect class="wordrect" x="52" y="52" width="1" height="1" fill="black"></rect><rect class="wordrect" x="53" y="2" width="1" height="1" fill="black"></rect><rect class="wordrect" x="53" y="8" width="1" height="1" fill="black"></rect><rect class="wordrect" x="53" y="47" width="1" height="1" fill="black"></rect><rect class="wordrect" x="53" y="53" width="1" height="1" fill="black"></rect><rect class="wordrect" x="54" y="3" width="1" height="1" fill="black"></rect><rect class="wordrect" x="54" y="9" width="1" height="1" fill="black"></rect><rect class="wordrect" x="54" y="48" width="1" height="1" fill="black"></rect><rect class="wordrect" x="54" y="54" width="1" height="1" fill="black"></rect><rect class="wordrect" x="55" y="4" width="1" height="1" fill="black"></rect><rect class="wordrect" x="55" y="10" width="1" height="1" fill="black"></rect><rect class="wordrect" x="55" y="12" width="1" height="1" fill="black"></rect><rect class="wordrect" x="55" y="16" width="1" height="1" fill="black"></rect><rect class="wordrect" x="55" y="26" width="1" height="1" fill="black"></rect><rect class="wordrect" x="55" y="35" width="1" height="1" fill="black"></rect><rect class="wordrect" x="55" y="49" width="1" height="1" fill="black"></rect><rect class="wordrect" x="55" y="55" width="1" height="1" fill="black"></rect><rect class="wordrect" x="55" y="60" width="1" height="1" fill="black"></rect><rect class="wordrect" x="55" y="65" width="1" height="1" fill="black"></rect><rect class="wordrect" x="55" y="107" width="1" height="1" fill="black"></rect><rect class="wordrect" x="55" y="112" width="1" height="1" fill="black"></rect><rect class="wordrect" x="56" y="0" width="1" height="1" fill="black"></rect><rect class="wordrect" x="56" y="45" width="1" height="1" fill="black"></rect><rect class="wordrect" x="56" y="56" width="1" height="1" fill="black"></rect><rect class="wordrect" x="56" y="61" width="1" height="1" fill="black"></rect><rect class="wordrect" x="56" y="88" width="1" height="1" fill="black"></rect><rect class="wordrect" x="56" y="103" width="1" height="1" fill="black"></rect><rect class="wordrect" x="56" y="108" width="1" height="1" fill="black"></rect><rect class="wordrect" x="57" y="1" width="1" height="1" fill="black"></rect><rect class="wordrect" x="57" y="46" width="1" height="1" fill="black"></rect><rect class="wordrect" x="57" y="57" width="1" height="1" fill="black"></rect><rect class="wordrect" x="57" y="62" width="1" height="1" fill="black"></rect><rect class="wordrect" x="57" y="77" width="1" height="1" fill="black"></rect><rect class="wordrect" x="57" y="96" width="1" height="1" fill="black"></rect><rect class="wordrect" x="57" y="104" width="1" height="1" fill="black"></rect><rect class="wordrect" x="57" y="109" width="1" height="1" fill="black"></rect><rect class="wordrect" x="58" y="58" width="1" height="1" fill="black"></rect><rect class="wordrect" x="58" y="63" width="1" height="1" fill="black"></rect><rect class="wordrect" x="59" y="59" width="1" height="1" fill="black"></rect><rect class="wordrect" x="59" y="64" width="1" height="1" fill="black"></rect><rect class="wordrect" x="60" y="4" width="1" height="1" fill="black"></rect><rect class="wordrect" x="60" y="10" width="1" height="1" fill="black"></rect><rect class="wordrect" x="60" y="12" width="1" height="1" fill="black"></rect><rect class="wordrect" x="60" y="16" width="1" height="1" fill="black"></rect><rect class="wordrect" x="60" y="26" width="1" height="1" fill="black"></rect><rect class="wordrect" x="60" y="35" width="1" height="1" fill="black"></rect><rect class="wordrect" x="60" y="49" width="1" height="1" fill="black"></rect><rect class="wordrect" x="60" y="55" width="1" height="1" fill="black"></rect><rect class="wordrect" x="60" y="60" width="1" height="1" fill="black"></rect><rect class="wordrect" x="60" y="65" width="1" height="1" fill="black"></rect><rect class="wordrect" x="60" y="107" width="1" height="1" fill="black"></rect><rect class="wordrect" x="60" y="112" width="1" height="1" fill="black"></rect><rect class="wordrect" x="61" y="0" width="1" height="1" fill="black"></rect><rect class="wordrect" x="61" y="45" width="1" height="1" fill="black"></rect><rect class="wordrect" x="61" y="56" width="1" height="1" fill="black"></rect><rect class="wordrect" x="61" y="61" width="1" height="1" fill="black"></rect><rect class="wordrect" x="61" y="88" width="1" height="1" fill="black"></rect><rect class="wordrect" x="61" y="103" width="1" height="1" fill="black"></rect><rect class="wordrect" x="61" y="108" width="1" height="1" fill="black"></rect><rect class="wordrect" x="62" y="1" width="1" height="1" fill="black"></rect><rect class="wordrect" x="62" y="46" width="1" height="1" fill="black"></rect><rect class="wordrect" x="62" y="57" width="1" height="1" fill="black"></rect><rect class="wordrect" x="62" y="62" width="1" height="1" fill="black"></rect><rect class="wordrect" x="62" y="77" width="1" height="1" fill="black"></rect><rect class="wordrect" x="62" y="96" width="1" height="1" fill="black"></rect><rect class="wordrect" x="62" y="104" width="1" height="1" fill="black"></rect><rect class="wordrect" x="62" y="109" width="1" height="1" fill="black"></rect><rect class="wordrect" x="63" y="58" width="1" height="1" fill="black"></rect><rect class="wordrect" x="63" y="63" width="1" height="1" fill="black"></rect><rect class="wordrect" x="64" y="59" width="1" height="1" fill="black"></rect><rect class="wordrect" x="64" y="64" width="1" height="1" fill="black"></rect><rect class="wordrect" x="65" y="4" width="1" height="1" fill="black"></rect><rect class="wordrect" x="65" y="10" width="1" height="1" fill="black"></rect><rect class="wordrect" x="65" y="12" width="1" height="1" fill="black"></rect><rect class="wordrect" x="65" y="16" width="1" height="1" fill="black"></rect><rect class="wordrect" x="65" y="26" width="1" height="1" fill="black"></rect><rect class="wordrect" x="65" y="35" width="1" height="1" fill="black"></rect><rect class="wordrect" x="65" y="49" width="1" height="1" fill="black"></rect><rect class="wordrect" x="65" y="55" width="1" height="1" fill="black"></rect><rect class="wordrect" x="65" y="60" width="1" height="1" fill="black"></rect><rect class="wordrect" x="65" y="65" width="1" height="1" fill="black"></rect><rect class="wordrect" x="65" y="107" width="1" height="1" fill="black"></rect><rect class="wordrect" x="65" y="112" width="1" height="1" fill="black"></rect><rect class="wordrect" x="66" y="66" width="1" height="1" fill="black"></rect><rect class="wordrect" x="66" y="73" width="1" height="1" fill="black"></rect><rect class="wordrect" x="66" y="78" width="1" height="1" fill="black"></rect><rect class="wordrect" x="66" y="82" width="1" height="1" fill="black"></rect><rect class="wordrect" x="66" y="85" width="1" height="1" fill="black"></rect><rect class="wordrect" x="67" y="67" width="1" height="1" fill="black"></rect><rect class="wordrect" x="67" y="79" width="1" height="1" fill="black"></rect><rect class="wordrect" x="67" y="83" width="1" height="1" fill="black"></rect><rect class="wordrect" x="68" y="68" width="1" height="1" fill="black"></rect><rect class="wordrect" x="68" y="99" width="1" height="1" fill="black"></rect><rect class="wordrect" x="69" y="18" width="1" height="1" fill="black"></rect><rect class="wordrect" x="69" y="69" width="1" height="1" fill="black"></rect><rect class="wordrect" x="69" y="100" width="1" height="1" fill="black"></rect><rect class="wordrect" x="70" y="70" width="1" height="1" fill="black"></rect><rect class="wordrect" x="71" y="71" width="1" height="1" fill="black"></rect><rect class="wordrect" x="71" y="102" width="1" height="1" fill="black"></rect><rect class="wordrect" x="72" y="72" width="1" height="1" fill="black"></rect><rect class="wordrect" x="73" y="66" width="1" height="1" fill="black"></rect><rect class="wordrect" x="73" y="73" width="1" height="1" fill="black"></rect><rect class="wordrect" x="73" y="78" width="1" height="1" fill="black"></rect><rect class="wordrect" x="73" y="82" width="1" height="1" fill="black"></rect><rect class="wordrect" x="73" y="85" width="1" height="1" fill="black"></rect><rect class="wordrect" x="74" y="74" width="1" height="1" fill="black"></rect><rect class="wordrect" x="75" y="75" width="1" height="1" fill="black"></rect><rect class="wordrect" x="76" y="76" width="1" height="1" fill="black"></rect><rect class="wordrect" x="76" y="95" width="1" height="1" fill="black"></rect><rect class="wordrect" x="77" y="1" width="1" height="1" fill="black"></rect><rect class="wordrect" x="77" y="46" width="1" height="1" fill="black"></rect><rect class="wordrect" x="77" y="57" width="1" height="1" fill="black"></rect><rect class="wordrect" x="77" y="62" width="1" height="1" fill="black"></rect><rect class="wordrect" x="77" y="77" width="1" height="1" fill="black"></rect><rect class="wordrect" x="77" y="96" width="1" height="1" fill="black"></rect><rect class="wordrect" x="77" y="104" width="1" height="1" fill="black"></rect><rect class="wordrect" x="77" y="109" width="1" height="1" fill="black"></rect><rect class="wordrect" x="78" y="66" width="1" height="1" fill="black"></rect><rect class="wordrect" x="78" y="73" width="1" height="1" fill="black"></rect><rect class="wordrect" x="78" y="78" width="1" height="1" fill="black"></rect><rect class="wordrect" x="78" y="82" width="1" height="1" fill="black"></rect><rect class="wordrect" x="78" y="85" width="1" height="1" fill="black"></rect><rect class="wordrect" x="79" y="67" width="1" height="1" fill="black"></rect><rect class="wordrect" x="79" y="79" width="1" height="1" fill="black"></rect><rect class="wordrect" x="79" y="83" width="1" height="1" fill="black"></rect><rect class="wordrect" x="80" y="80" width="1" height="1" fill="black"></rect><rect class="wordrect" x="81" y="14" width="1" height="1" fill="black"></rect><rect class="wordrect" x="81" y="21" width="1" height="1" fill="black"></rect><rect class="wordrect" x="81" y="81" width="1" height="1" fill="black"></rect><rect class="wordrect" x="81" y="93" width="1" height="1" fill="black"></rect><rect class="wordrect" x="82" y="66" width="1" height="1" fill="black"></rect><rect class="wordrect" x="82" y="73" width="1" height="1" fill="black"></rect><rect class="wordrect" x="82" y="78" width="1" height="1" fill="black"></rect><rect class="wordrect" x="82" y="82" width="1" height="1" fill="black"></rect><rect class="wordrect" x="82" y="85" width="1" height="1" fill="black"></rect><rect class="wordrect" x="83" y="67" width="1" height="1" fill="black"></rect><rect class="wordrect" x="83" y="79" width="1" height="1" fill="black"></rect><rect class="wordrect" x="83" y="83" width="1" height="1" fill="black"></rect><rect class="wordrect" x="84" y="84" width="1" height="1" fill="black"></rect><rect class="wordrect" x="85" y="66" width="1" height="1" fill="black"></rect><rect class="wordrect" x="85" y="73" width="1" height="1" fill="black"></rect><rect class="wordrect" x="85" y="78" width="1" height="1" fill="black"></rect><rect class="wordrect" x="85" y="82" width="1" height="1" fill="black"></rect><rect class="wordrect" x="85" y="85" width="1" height="1" fill="black"></rect><rect class="wordrect" x="86" y="86" width="1" height="1" fill="black"></rect><rect class="wordrect" x="87" y="87" width="1" height="1" fill="black"></rect><rect class="wordrect" x="88" y="0" width="1" height="1" fill="black"></rect><rect class="wordrect" x="88" y="45" width="1" height="1" fill="black"></rect><rect class="wordrect" x="88" y="56" width="1" height="1" fill="black"></rect><rect class="wordrect" x="88" y="61" width="1" height="1" fill="black"></rect><rect class="wordrect" x="88" y="88" width="1" height="1" fill="black"></rect><rect class="wordrect" x="88" y="103" width="1" height="1" fill="black"></rect><rect class="wordrect" x="88" y="108" width="1" height="1" fill="black"></rect><rect class="wordrect" x="89" y="89" width="1" height="1" fill="black"></rect><rect class="wordrect" x="89" y="92" width="1" height="1" fill="black"></rect><rect class="wordrect" x="90" y="90" width="1" height="1" fill="black"></rect><rect class="wordrect" x="91" y="91" width="1" height="1" fill="black"></rect><rect class="wordrect" x="92" y="89" width="1" height="1" fill="black"></rect><rect class="wordrect" x="92" y="92" width="1" height="1" fill="black"></rect><rect class="wordrect" x="93" y="14" width="1" height="1" fill="black"></rect><rect class="wordrect" x="93" y="21" width="1" height="1" fill="black"></rect><rect class="wordrect" x="93" y="81" width="1" height="1" fill="black"></rect><rect class="wordrect" x="93" y="93" width="1" height="1" fill="black"></rect><rect class="wordrect" x="94" y="6" width="1" height="1" fill="black"></rect><rect class="wordrect" x="94" y="51" width="1" height="1" fill="black"></rect><rect class="wordrect" x="94" y="94" width="1" height="1" fill="black"></rect><rect class="wordrect" x="95" y="76" width="1" height="1" fill="black"></rect><rect class="wordrect" x="95" y="95" width="1" height="1" fill="black"></rect><rect class="wordrect" x="96" y="1" width="1" height="1" fill="black"></rect><rect class="wordrect" x="96" y="46" width="1" height="1" fill="black"></rect><rect class="wordrect" x="96" y="57" width="1" height="1" fill="black"></rect><rect class="wordrect" x="96" y="62" width="1" height="1" fill="black"></rect><rect class="wordrect" x="96" y="77" width="1" height="1" fill="black"></rect><rect class="wordrect" x="96" y="96" width="1" height="1" fill="black"></rect><rect class="wordrect" x="96" y="104" width="1" height="1" fill="black"></rect><rect class="wordrect" x="96" y="109" width="1" height="1" fill="black"></rect><rect class="wordrect" x="97" y="97" width="1" height="1" fill="black"></rect><rect class="wordrect" x="98" y="98" width="1" height="1" fill="black"></rect><rect class="wordrect" x="99" y="68" width="1" height="1" fill="black"></rect><rect class="wordrect" x="99" y="99" width="1" height="1" fill="black"></rect><rect class="wordrect" x="100" y="18" width="1" height="1" fill="black"></rect><rect class="wordrect" x="100" y="69" width="1" height="1" fill="black"></rect><rect class="wordrect" x="100" y="100" width="1" height="1" fill="black"></rect><rect class="wordrect" x="101" y="101" width="1" height="1" fill="black"></rect><rect class="wordrect" x="102" y="71" width="1" height="1" fill="black"></rect><rect class="wordrect" x="102" y="102" width="1" height="1" fill="black"></rect><rect class="wordrect" x="103" y="0" width="1" height="1" fill="black"></rect><rect class="wordrect" x="103" y="45" width="1" height="1" fill="black"></rect><rect class="wordrect" x="103" y="56" width="1" height="1" fill="black"></rect><rect class="wordrect" x="103" y="61" width="1" height="1" fill="black"></rect><rect class="wordrect" x="103" y="88" width="1" height="1" fill="black"></rect><rect class="wordrect" x="103" y="103" width="1" height="1" fill="black"></rect><rect class="wordrect" x="103" y="108" width="1" height="1" fill="black"></rect><rect class="wordrect" x="104" y="1" width="1" height="1" fill="black"></rect><rect class="wordrect" x="104" y="46" width="1" height="1" fill="black"></rect><rect class="wordrect" x="104" y="57" width="1" height="1" fill="black"></rect><rect class="wordrect" x="104" y="62" width="1" height="1" fill="black"></rect><rect class="wordrect" x="104" y="77" width="1" height="1" fill="black"></rect><rect class="wordrect" x="104" y="96" width="1" height="1" fill="black"></rect><rect class="wordrect" x="104" y="104" width="1" height="1" fill="black"></rect><rect class="wordrect" x="104" y="109" width="1" height="1" fill="black"></rect><rect class="wordrect" x="105" y="105" width="1" height="1" fill="black"></rect><rect class="wordrect" x="105" y="110" width="1" height="1" fill="black"></rect><rect class="wordrect" x="106" y="106" width="1" height="1" fill="black"></rect><rect class="wordrect" x="106" y="111" width="1" height="1" fill="black"></rect><rect class="wordrect" x="107" y="4" width="1" height="1" fill="black"></rect><rect class="wordrect" x="107" y="10" width="1" height="1" fill="black"></rect><rect class="wordrect" x="107" y="12" width="1" height="1" fill="black"></rect><rect class="wordrect" x="107" y="16" width="1" height="1" fill="black"></rect><rect class="wordrect" x="107" y="26" width="1" height="1" fill="black"></rect><rect class="wordrect" x="107" y="35" width="1" height="1" fill="black"></rect><rect class="wordrect" x="107" y="49" width="1" height="1" fill="black"></rect><rect class="wordrect" x="107" y="55" width="1" height="1" fill="black"></rect><rect class="wordrect" x="107" y="60" width="1" height="1" fill="black"></rect><rect class="wordrect" x="107" y="65" width="1" height="1" fill="black"></rect><rect class="wordrect" x="107" y="107" width="1" height="1" fill="black"></rect><rect class="wordrect" x="107" y="112" width="1" height="1" fill="black"></rect><rect class="wordrect" x="108" y="0" width="1" height="1" fill="black"></rect><rect class="wordrect" x="108" y="45" width="1" height="1" fill="black"></rect><rect class="wordrect" x="108" y="56" width="1" height="1" fill="black"></rect><rect class="wordrect" x="108" y="61" width="1" height="1" fill="black"></rect><rect class="wordrect" x="108" y="88" width="1" height="1" fill="black"></rect><rect class="wordrect" x="108" y="103" width="1" height="1" fill="black"></rect><rect class="wordrect" x="108" y="108" width="1" height="1" fill="black"></rect><rect class="wordrect" x="109" y="1" width="1" height="1" fill="black"></rect><rect class="wordrect" x="109" y="46" width="1" height="1" fill="black"></rect><rect class="wordrect" x="109" y="57" width="1" height="1" fill="black"></rect><rect class="wordrect" x="109" y="62" width="1" height="1" fill="black"></rect><rect class="wordrect" x="109" y="77" width="1" height="1" fill="black"></rect><rect class="wordrect" x="109" y="96" width="1" height="1" fill="black"></rect><rect class="wordrect" x="109" y="104" width="1" height="1" fill="black"></rect><rect class="wordrect" x="109" y="109" width="1" height="1" fill="black"></rect><rect class="wordrect" x="110" y="105" width="1" height="1" fill="black"></rect><rect class="wordrect" x="110" y="110" width="1" height="1" fill="black"></rect><rect class="wordrect" x="111" y="106" width="1" height="1" fill="black"></rect><rect class="wordrect" x="111" y="111" width="1" height="1" fill="black"></rect><rect class="wordrect" x="112" y="4" width="1" height="1" fill="black"></rect><rect class="wordrect" x="112" y="10" width="1" height="1" fill="black"></rect><rect class="wordrect" x="112" y="12" width="1" height="1" fill="black"></rect><rect class="wordrect" x="112" y="16" width="1" height="1" fill="black"></rect><rect class="wordrect" x="112" y="26" width="1" height="1" fill="black"></rect><rect class="wordrect" x="112" y="35" width="1" height="1" fill="black"></rect><rect class="wordrect" x="112" y="49" width="1" height="1" fill="black"></rect><rect class="wordrect" x="112" y="55" width="1" height="1" fill="black"></rect><rect class="wordrect" x="112" y="60" width="1" height="1" fill="black"></rect><rect class="wordrect" x="112" y="65" width="1" height="1" fill="black"></rect><rect class="wordrect" x="112" y="107" width="1" height="1" fill="black"></rect><rect class="wordrect" x="112" y="112" width="1" height="1" fill="black"></rect></g></g></svg>