<svg class="matrix" viewBox="0 0 18 18" version="1.1" xmlns="http://www.w3.org/2000/svg"><g><g class="matrixHighlights"><!-- react-text: 116 --><!-- /react-text --><!-- react-text: 117 --> <!-- /react-text --><!-- react-text: 118 --> <!-- /react-text --></g><g><rect class="wordrect" x="4" y="4" width="2" height="2" fill="black"></rect><rect class="wordrect" x="0" y="0" width="1" height="1" fill="black"></rect><rect class="wordrect" x="0" y="2" width="1" height="1" fill="black"></rect><rect class="wordrect" x="1" y="1" width="1" height="1" fill="black"></rect><rect class="wordrect" x="1" y="3" width="1" height="1" fill="black"></rect><rect class="wordrect" x="2" y="0" width="1" height="1" fill="black"></rect><rect class="wordrect" x="2" y="2" width="1" height="1" fill="black"></rect><rect class="wordrect" x="3" y="1" width="1" height="1" fill="black"></rect><rect class="wordrect" x="3" y="3" width="1" height="1" fill="black"></rect><rect class="wordrect" x="6" y="6" width="1" height="1" fill="black"></rect><rect class="wordrect" x="6" y="9" width="1" height="1" fill="black"></rect><rect class="wordrect" x="7" y="7" width="1" height="1" fill="black"></rect><rect class="wordrect" x="7" y="10" width="1" height="1" fill="black"></rect><rect class="wordrect" x="8" y="8" width="1" height="1" fill="black"></rect><rect class="wordrect" x="8" y="11" width="1" height="1" fill="black"></rect><rect class="wordrect" x="9" y="6" width="1" height="1" fill="black"></rect><rect class="wordrect" x="9" y="9" width="1" height="1" fill="black"></rect><rect class="wordrect" x="10" y="7" width="1" height="1" fill="black"></rect><rect class="wordrect" x="10" y="10" width="1" height="1" fill="black"></rect><rect class="wordrect" x="11" y="8" width="1" height="1" fill="black"></rect><rect class="wordrect" x="11" y="11" width="1" height="1" fill="black"></rect><rect class="wordrect" x="12" y="12" width="1" height="1" fill="black"></rect><rect class="wordrect" x="12" y="15" width="1" height="1" fill="black"></rect><rect class="wordrect" x="13" y="13" width="1" height="1" fill="black"></rect><rect class="wordrect" x="13" y="16" width="1" height="1" fill="black"></rect><rect class="wordrect" x="14" y="14" width="1" height="1" fill="black"></rect><rect class="wordrect" x="14" y="17" width="1" height="1" fill="black"></rect><rect class="wordrect" x="15" y="12" width="1" height="1" fill="black"></rect><rect class="wordrect" x="15" y="15" width="1" height="1" fill="black"></rect><rect class="wordrect" x="16" y="13" width="1" height="1" fill="black"></rect><rect class="wordrect" x="16" y="16" width="1" height="1" fill="black"></rect><rect class="wordrect" x="17" y="14" width="1" height="1" fill="black"></rect><rect class="wordrect" x="17" y="17" width="1" height="1" fill="black"></rect></g></g></svg>