<svg class="matrix" viewBox="0 0 93 93" version="1.1" xmlns="http://www.w3.org/2000/svg"><g><g class="matrixHighlights"><!-- react-text: 116 --><!-- /react-text --><!-- react-text: 117 --> <!-- /react-text --><!-- react-text: 118 --> <!-- /react-text --></g><g><rect class="wordrect" x="0" y="0" width="1" height="1" fill="black"></rect><rect class="wordrect" x="1" y="1" width="1" height="1" fill="black"></rect><rect class="wordrect" x="2" y="2" width="1" height="1" fill="black"></rect><rect class="wordrect" x="3" y="3" width="1" height="1" fill="black"></rect><rect class="wordrect" x="4" y="4" width="1" height="1" fill="black"></rect><rect class="wordrect" x="5" y="5" width="1" height="1" fill="black"></rect><rect class="wordrect" x="6" y="6" width="1" height="1" fill="black"></rect><rect class="wordrect" x="7" y="7" width="1" height="1" fill="black"></rect><rect class="wordrect" x="8" y="8" width="1" height="1" fill="black"></rect><rect class="wordrect" x="9" y="9" width="1" height="1" fill="black"></rect><rect class="wordrect" x="10" y="10" width="1" height="1" fill="black"></rect><rect class="wordrect" x="11" y="11" width="1" height="1" fill="black"></rect><rect class="wordrect" x="12" y="12" width="1" height="1" fill="black"></rect><rect class="wordrect" x="13" y="13" width="1" height="1" fill="black"></rect><rect class="wordrect" x="14" y="14" width="1" height="1" fill="black"></rect><rect class="wordrect" x="15" y="15" width="1" height="1" fill="black"></rect><rect class="wordrect" x="16" y="16" width="1" height="1" fill="black"></rect><rect class="wordrect" x="17" y="17" width="1" height="1" fill="black"></rect><rect class="wordrect" x="18" y="18" width="1" height="1" fill="black"></rect><rect class="wordrect" x="19" y="19" width="1" height="1" fill="black"></rect><rect class="wordrect" x="20" y="20" width="1" height="1" fill="black"></rect><rect class="wordrect" x="21" y="21" width="1" height="1" fill="black"></rect><rect class="wordrect" x="21" y="23" width="1" height="1" fill="black"></rect><rect class="wordrect" x="21" y="25" width="1" height="1" fill="black"></rect><rect class="wordrect" x="21" y="46" width="1" height="1" fill="black"></rect><rect class="wordrect" x="21" y="48" width="1" height="1" fill="black"></rect><rect class="wordrect" x="21" y="50" width="1" height="1" fill="black"></rect><rect class="wordrect" x="21" y="52" width="1" height="1" fill="black"></rect><rect class="wordrect" x="21" y="54" width="1" height="1" fill="black"></rect><rect class="wordrect" x="21" y="56" width="1" height="1" fill="black"></rect><rect class="wordrect" x="21" y="87" width="1" height="1" fill="black"></rect><rect class="wordrect" x="21" y="89" width="1" height="1" fill="black"></rect><rect class="wordrect" x="21" y="91" width="1" height="1" fill="black"></rect><rect class="wordrect" x="22" y="22" width="1" height="1" fill="black"></rect><rect class="wordrect" x="22" y="24" width="1" height="1" fill="black"></rect><rect class="wordrect" x="22" y="26" width="1" height="1" fill="black"></rect><rect class="wordrect" x="22" y="47" width="1" height="1" fill="black"></rect><rect class="wordrect" x="22" y="49" width="1" height="1" fill="black"></rect><rect class="wordrect" x="22" y="51" width="1" height="1" fill="black"></rect><rect class="wordrect" x="22" y="53" width="1" height="1" fill="black"></rect><rect class="wordrect" x="22" y="55" width="1" height="1" fill="black"></rect><rect class="wordrect" x="22" y="57" width="1" height="1" fill="black"></rect><rect class="wordrect" x="22" y="88" width="1" height="1" fill="black"></rect><rect class="wordrect" x="22" y="90" width="1" height="1" fill="black"></rect><rect class="wordrect" x="22" y="92" width="1" height="1" fill="black"></rect><rect class="wordrect" x="23" y="21" width="1" height="1" fill="black"></rect><rect class="wordrect" x="23" y="23" width="1" height="1" fill="black"></rect><rect class="wordrect" x="23" y="25" width="1" height="1" fill="black"></rect><rect class="wordrect" x="23" y="46" width="1" height="1" fill="black"></rect><rect class="wordrect" x="23" y="48" width="1" height="1" fill="black"></rect><rect class="wordrect" x="23" y="50" width="1" height="1" fill="black"></rect><rect class="wordrect" x="23" y="52" width="1" height="1" fill="black"></rect><rect class="wordrect" x="23" y="54" width="1" height="1" fill="black"></rect><rect class="wordrect" x="23" y="56" width="1" height="1" fill="black"></rect><rect class="wordrect" x="23" y="87" width="1" height="1" fill="black"></rect><rect class="wordrect" x="23" y="89" width="1" height="1" fill="black"></rect><rect class="wordrect" x="23" y="91" width="1" height="1" fill="black"></rect><rect class="wordrect" x="24" y="22" width="1" height="1" fill="black"></rect><rect class="wordrect" x="24" y="24" width="1" height="1" fill="black"></rect><rect class="wordrect" x="24" y="26" width="1" height="1" fill="black"></rect><rect class="wordrect" x="24" y="47" width="1" height="1" fill="black"></rect><rect class="wordrect" x="24" y="49" width="1" height="1" fill="black"></rect><rect class="wordrect" x="24" y="51" width="1" height="1" fill="black"></rect><rect class="wordrect" x="24" y="53" width="1" height="1" fill="black"></rect><rect class="wordrect" x="24" y="55" width="1" height="1" fill="black"></rect><rect class="wordrect" x="24" y="57" width="1" height="1" fill="black"></rect><rect class="wordrect" x="24" y="88" width="1" height="1" fill="black"></rect><rect class="wordrect" x="24" y="90" width="1" height="1" fill="black"></rect><rect class="wordrect" x="24" y="92" width="1" height="1" fill="black"></rect><rect class="wordrect" x="25" y="21" width="1" height="1" fill="black"></rect><rect class="wordrect" x="25" y="23" width="1" height="1" fill="black"></rect><rect class="wordrect" x="25" y="25" width="1" height="1" fill="black"></rect><rect class="wordrect" x="25" y="46" width="1" height="1" fill="black"></rect><rect class="wordrect" x="25" y="48" width="1" height="1" fill="black"></rect><rect class="wordrect" x="25" y="50" width="1" height="1" fill="black"></rect><rect class="wordrect" x="25" y="52" width="1" height="1" fill="black"></rect><rect class="wordrect" x="25" y="54" width="1" height="1" fill="black"></rect><rect class="wordrect" x="25" y="56" width="1" height="1" fill="black"></rect><rect class="wordrect" x="25" y="87" width="1" height="1" fill="black"></rect><rect class="wordrect" x="25" y="89" width="1" height="1" fill="black"></rect><rect class="wordrect" x="25" y="91" width="1" height="1" fill="black"></rect><rect class="wordrect" x="26" y="22" width="1" height="1" fill="black"></rect><rect class="wordrect" x="26" y="24" width="1" height="1" fill="black"></rect><rect class="wordrect" x="26" y="26" width="1" height="1" fill="black"></rect><rect class="wordrect" x="26" y="47" width="1" height="1" fill="black"></rect><rect class="wordrect" x="26" y="49" width="1" height="1" fill="black"></rect><rect class="wordrect" x="26" y="51" width="1" height="1" fill="black"></rect><rect class="wordrect" x="26" y="53" width="1" height="1" fill="black"></rect><rect class="wordrect" x="26" y="55" width="1" height="1" fill="black"></rect><rect class="wordrect" x="26" y="57" width="1" height="1" fill="black"></rect><rect class="wordrect" x="26" y="88" width="1" height="1" fill="black"></rect><rect class="wordrect" x="26" y="90" width="1" height="1" fill="black"></rect><rect class="wordrect" x="26" y="92" width="1" height="1" fill="black"></rect><rect class="wordrect" x="27" y="27" width="1" height="1" fill="black"></rect><rect class="wordrect" x="28" y="28" width="1" height="1" fill="black"></rect><rect class="wordrect" x="29" y="29" width="1" height="1" fill="black"></rect><rect class="wordrect" x="30" y="30" width="1" height="1" fill="black"></rect><rect class="wordrect" x="31" y="31" width="1" height="1" fill="black"></rect><rect class="wordrect" x="32" y="32" width="1" height="1" fill="black"></rect><rect class="wordrect" x="32" y="36" width="1" height="1" fill="black"></rect><rect class="wordrect" x="33" y="33" width="1" height="1" fill="black"></rect><rect class="wordrect" x="34" y="34" width="1" height="1" fill="black"></rect><rect class="wordrect" x="35" y="35" width="1" height="1" fill="black"></rect><rect class="wordrect" x="36" y="32" width="1" height="1" fill="black"></rect><rect class="wordrect" x="36" y="36" width="1" height="1" fill="black"></rect><rect class="wordrect" x="37" y="37" width="1" height="1" fill="black"></rect><rect class="wordrect" x="38" y="38" width="1" height="1" fill="black"></rect><rect class="wordrect" x="39" y="39" width="1" height="1" fill="black"></rect><rect class="wordrect" x="40" y="40" width="1" height="1" fill="black"></rect><rect class="wordrect" x="41" y="41" width="1" height="1" fill="black"></rect><rect class="wordrect" x="42" y="42" width="1" height="1" fill="black"></rect><rect class="wordrect" x="43" y="43" width="1" height="1" fill="black"></rect><rect class="wordrect" x="44" y="44" width="1" height="1" fill="black"></rect><rect class="wordrect" x="45" y="45" width="1" height="1" fill="black"></rect><rect class="wordrect" x="46" y="21" width="1" height="1" fill="black"></rect><rect class="wordrect" x="46" y="23" width="1" height="1" fill="black"></rect><rect class="wordrect" x="46" y="25" width="1" height="1" fill="black"></rect><rect class="wordrect" x="46" y="46" width="1" height="1" fill="black"></rect><rect class="wordrect" x="46" y="48" width="1" height="1" fill="black"></rect><rect class="wordrect" x="46" y="50" width="1" height="1" fill="black"></rect><rect class="wordrect" x="46" y="52" width="1" height="1" fill="black"></rect><rect class="wordrect" x="46" y="54" width="1" height="1" fill="black"></rect><rect class="wordrect" x="46" y="56" width="1" height="1" fill="black"></rect><rect class="wordrect" x="46" y="87" width="1" height="1" fill="black"></rect><rect class="wordrect" x="46" y="89" width="1" height="1" fill="black"></rect><rect class="wordrect" x="46" y="91" width="1" height="1" fill="black"></rect><rect class="wordrect" x="47" y="22" width="1" height="1" fill="black"></rect><rect class="wordrect" x="47" y="24" width="1" height="1" fill="black"></rect><rect class="wordrect" x="47" y="26" width="1" height="1" fill="black"></rect><rect class="wordrect" x="47" y="47" width="1" height="1" fill="black"></rect><rect class="wordrect" x="47" y="49" width="1" height="1" fill="black"></rect><rect class="wordrect" x="47" y="51" width="1" height="1" fill="black"></rect><rect class="wordrect" x="47" y="53" width="1" height="1" fill="black"></rect><rect class="wordrect" x="47" y="55" width="1" height="1" fill="black"></rect><rect class="wordrect" x="47" y="57" width="1" height="1" fill="black"></rect><rect class="wordrect" x="47" y="88" width="1" height="1" fill="black"></rect><rect class="wordrect" x="47" y="90" width="1" height="1" fill="black"></rect><rect class="wordrect" x="47" y="92" width="1" height="1" fill="black"></rect><rect class="wordrect" x="48" y="21" width="1" height="1" fill="black"></rect><rect class="wordrect" x="48" y="23" width="1" height="1" fill="black"></rect><rect class="wordrect" x="48" y="25" width="1" height="1" fill="black"></rect><rect class="wordrect" x="48" y="46" width="1" height="1" fill="black"></rect><rect class="wordrect" x="48" y="48" width="1" height="1" fill="black"></rect><rect class="wordrect" x="48" y="50" width="1" height="1" fill="black"></rect><rect class="wordrect" x="48" y="52" width="1" height="1" fill="black"></rect><rect class="wordrect" x="48" y="54" width="1" height="1" fill="black"></rect><rect class="wordrect" x="48" y="56" width="1" height="1" fill="black"></rect><rect class="wordrect" x="48" y="87" width="1" height="1" fill="black"></rect><rect class="wordrect" x="48" y="89" width="1" height="1" fill="black"></rect><rect class="wordrect" x="48" y="91" width="1" height="1" fill="black"></rect><rect class="wordrect" x="49" y="22" width="1" height="1" fill="black"></rect><rect class="wordrect" x="49" y="24" width="1" height="1" fill="black"></rect><rect class="wordrect" x="49" y="26" width="1" height="1" fill="black"></rect><rect class="wordrect" x="49" y="47" width="1" height="1" fill="black"></rect><rect class="wordrect" x="49" y="49" width="1" height="1" fill="black"></rect><rect class="wordrect" x="49" y="51" width="1" height="1" fill="black"></rect><rect class="wordrect" x="49" y="53" width="1" height="1" fill="black"></rect><rect class="wordrect" x="49" y="55" width="1" height="1" fill="black"></rect><rect class="wordrect" x="49" y="57" width="1" height="1" fill="black"></rect><rect class="wordrect" x="49" y="88" width="1" height="1" fill="black"></rect><rect class="wordrect" x="49" y="90" width="1" height="1" fill="black"></rect><rect class="wordrect" x="49" y="92" width="1" height="1" fill="black"></rect><rect class="wordrect" x="50" y="21" width="1" height="1" fill="black"></rect><rect class="wordrect" x="50" y="23" width="1" height="1" fill="black"></rect><rect class="wordrect" x="50" y="25" width="1" height="1" fill="black"></rect><rect class="wordrect" x="50" y="46" width="1" height="1" fill="black"></rect><rect class="wordrect" x="50" y="48" width="1" height="1" fill="black"></rect><rect class="wordrect" x="50" y="50" width="1" height="1" fill="black"></rect><rect class="wordrect" x="50" y="52" width="1" height="1" fill="black"></rect><rect class="wordrect" x="50" y="54" width="1" height="1" fill="black"></rect><rect class="wordrect" x="50" y="56" width="1" height="1" fill="black"></rect><rect class="wordrect" x="50" y="87" width="1" height="1" fill="black"></rect><rect class="wordrect" x="50" y="89" width="1" height="1" fill="black"></rect><rect class="wordrect" x="50" y="91" width="1" height="1" fill="black"></rect><rect class="wordrect" x="51" y="22" width="1" height="1" fill="black"></rect><rect class="wordrect" x="51" y="24" width="1" height="1" fill="black"></rect><rect class="wordrect" x="51" y="26" width="1" height="1" fill="black"></rect><rect class="wordrect" x="51" y="47" width="1" height="1" fill="black"></rect><rect class="wordrect" x="51" y="49" width="1" height="1" fill="black"></rect><rect class="wordrect" x="51" y="51" width="1" height="1" fill="black"></rect><rect class="wordrect" x="51" y="53" width="1" height="1" fill="black"></rect><rect class="wordrect" x="51" y="55" width="1" height="1" fill="black"></rect><rect class="wordrect" x="51" y="57" width="1" height="1" fill="black"></rect><rect class="wordrect" x="51" y="88" width="1" height="1" fill="black"></rect><rect class="wordrect" x="51" y="90" width="1" height="1" fill="black"></rect><rect class="wordrect" x="51" y="92" width="1" height="1" fill="black"></rect><rect class="wordrect" x="52" y="21" width="1" height="1" fill="black"></rect><rect class="wordrect" x="52" y="23" width="1" height="1" fill="black"></rect><rect class="wordrect" x="52" y="25" width="1" height="1" fill="black"></rect><rect class="wordrect" x="52" y="46" width="1" height="1" fill="black"></rect><rect class="wordrect" x="52" y="48" width="1" height="1" fill="black"></rect><rect class="wordrect" x="52" y="50" width="1" height="1" fill="black"></rect><rect class="wordrect" x="52" y="52" width="1" height="1" fill="black"></rect><rect class="wordrect" x="52" y="54" width="1" height="1" fill="black"></rect><rect class="wordrect" x="52" y="56" width="1" height="1" fill="black"></rect><rect class="wordrect" x="52" y="87" width="1" height="1" fill="black"></rect><rect class="wordrect" x="52" y="89" width="1" height="1" fill="black"></rect><rect class="wordrect" x="52" y="91" width="1" height="1" fill="black"></rect><rect class="wordrect" x="53" y="22" width="1" height="1" fill="black"></rect><rect class="wordrect" x="53" y="24" width="1" height="1" fill="black"></rect><rect class="wordrect" x="53" y="26" width="1" height="1" fill="black"></rect><rect class="wordrect" x="53" y="47" width="1" height="1" fill="black"></rect><rect class="wordrect" x="53" y="49" width="1" height="1" fill="black"></rect><rect class="wordrect" x="53" y="51" width="1" height="1" fill="black"></rect><rect class="wordrect" x="53" y="53" width="1" height="1" fill="black"></rect><rect class="wordrect" x="53" y="55" width="1" height="1" fill="black"></rect><rect class="wordrect" x="53" y="57" width="1" height="1" fill="black"></rect><rect class="wordrect" x="53" y="88" width="1" height="1" fill="black"></rect><rect class="wordrect" x="53" y="90" width="1" height="1" fill="black"></rect><rect class="wordrect" x="53" y="92" width="1" height="1" fill="black"></rect><rect class="wordrect" x="54" y="21" width="1" height="1" fill="black"></rect><rect class="wordrect" x="54" y="23" width="1" height="1" fill="black"></rect><rect class="wordrect" x="54" y="25" width="1" height="1" fill="black"></rect><rect class="wordrect" x="54" y="46" width="1" height="1" fill="black"></rect><rect class="wordrect" x="54" y="48" width="1" height="1" fill="black"></rect><rect class="wordrect" x="54" y="50" width="1" height="1" fill="black"></rect><rect class="wordrect" x="54" y="52" width="1" height="1" fill="black"></rect><rect class="wordrect" x="54" y="54" width="1" height="1" fill="black"></rect><rect class="wordrect" x="54" y="56" width="1" height="1" fill="black"></rect><rect class="wordrect" x="54" y="87" width="1" height="1" fill="black"></rect><rect class="wordrect" x="54" y="89" width="1" height="1" fill="black"></rect><rect class="wordrect" x="54" y="91" width="1" height="1" fill="black"></rect><rect class="wordrect" x="55" y="22" width="1" height="1" fill="black"></rect><rect class="wordrect" x="55" y="24" width="1" height="1" fill="black"></rect><rect class="wordrect" x="55" y="26" width="1" height="1" fill="black"></rect><rect class="wordrect" x="55" y="47" width="1" height="1" fill="black"></rect><rect class="wordrect" x="55" y="49" width="1" height="1" fill="black"></rect><rect class="wordrect" x="55" y="51" width="1" height="1" fill="black"></rect><rect class="wordrect" x="55" y="53" width="1" height="1" fill="black"></rect><rect class="wordrect" x="55" y="55" width="1" height="1" fill="black"></rect><rect class="wordrect" x="55" y="57" width="1" height="1" fill="black"></rect><rect class="wordrect" x="55" y="88" width="1" height="1" fill="black"></rect><rect class="wordrect" x="55" y="90" width="1" height="1" fill="black"></rect><rect class="wordrect" x="55" y="92" width="1" height="1" fill="black"></rect><rect class="wordrect" x="56" y="21" width="1" height="1" fill="black"></rect><rect class="wordrect" x="56" y="23" width="1" height="1" fill="black"></rect><rect class="wordrect" x="56" y="25" width="1" height="1" fill="black"></rect><rect class="wordrect" x="56" y="46" width="1" height="1" fill="black"></rect><rect class="wordrect" x="56" y="48" width="1" height="1" fill="black"></rect><rect class="wordrect" x="56" y="50" width="1" height="1" fill="black"></rect><rect class="wordrect" x="56" y="52" width="1" height="1" fill="black"></rect><rect class="wordrect" x="56" y="54" width="1" height="1" fill="black"></rect><rect class="wordrect" x="56" y="56" width="1" height="1" fill="black"></rect><rect class="wordrect" x="56" y="87" width="1" height="1" fill="black"></rect><rect class="wordrect" x="56" y="89" width="1" height="1" fill="black"></rect><rect class="wordrect" x="56" y="91" width="1" height="1" fill="black"></rect><rect class="wordrect" x="57" y="22" width="1" height="1" fill="black"></rect><rect class="wordrect" x="57" y="24" width="1" height="1" fill="black"></rect><rect class="wordrect" x="57" y="26" width="1" height="1" fill="black"></rect><rect class="wordrect" x="57" y="47" width="1" height="1" fill="black"></rect><rect class="wordrect" x="57" y="49" width="1" height="1" fill="black"></rect><rect class="wordrect" x="57" y="51" width="1" height="1" fill="black"></rect><rect class="wordrect" x="57" y="53" width="1" height="1" fill="black"></rect><rect class="wordrect" x="57" y="55" width="1" height="1" fill="black"></rect><rect class="wordrect" x="57" y="57" width="1" height="1" fill="black"></rect><rect class="wordrect" x="57" y="88" width="1" height="1" fill="black"></rect><rect class="wordrect" x="57" y="90" width="1" height="1" fill="black"></rect><rect class="wordrect" x="57" y="92" width="1" height="1" fill="black"></rect><rect class="wordrect" x="58" y="58" width="1" height="1" fill="black"></rect><rect class="wordrect" x="59" y="59" width="1" height="1" fill="black"></rect><rect class="wordrect" x="60" y="60" width="1" height="1" fill="black"></rect><rect class="wordrect" x="60" y="82" width="1" height="1" fill="black"></rect><rect class="wordrect" x="61" y="61" width="1" height="1" fill="black"></rect><rect class="wordrect" x="61" y="73" width="1" height="1" fill="black"></rect><rect class="wordrect" x="62" y="62" width="1" height="1" fill="black"></rect><rect class="wordrect" x="62" y="74" width="1" height="1" fill="black"></rect><rect class="wordrect" x="63" y="63" width="1" height="1" fill="black"></rect><rect class="wordrect" x="64" y="64" width="1" height="1" fill="black"></rect><rect class="wordrect" x="65" y="65" width="1" height="1" fill="black"></rect><rect class="wordrect" x="66" y="66" width="1" height="1" fill="black"></rect><rect class="wordrect" x="67" y="67" width="1" height="1" fill="black"></rect><rect class="wordrect" x="68" y="68" width="1" height="1" fill="black"></rect><rect class="wordrect" x="69" y="69" width="1" height="1" fill="black"></rect><rect class="wordrect" x="70" y="70" width="1" height="1" fill="black"></rect><rect class="wordrect" x="71" y="71" width="1" height="1" fill="black"></rect><rect class="wordrect" x="72" y="72" width="1" height="1" fill="black"></rect><rect class="wordrect" x="73" y="61" width="1" height="1" fill="black"></rect><rect class="wordrect" x="73" y="73" width="1" height="1" fill="black"></rect><rect class="wordrect" x="74" y="62" width="1" height="1" fill="black"></rect><rect class="wordrect" x="74" y="74" width="1" height="1" fill="black"></rect><rect class="wordrect" x="75" y="75" width="1" height="1" fill="black"></rect><rect class="wordrect" x="76" y="76" width="1" height="1" fill="black"></rect><rect class="wordrect" x="77" y="77" width="1" height="1" fill="black"></rect><rect class="wordrect" x="78" y="78" width="1" height="1" fill="black"></rect><rect class="wordrect" x="79" y="79" width="1" height="1" fill="black"></rect><rect class="wordrect" x="80" y="80" width="1" height="1" fill="black"></rect><rect class="wordrect" x="81" y="81" width="1" height="1" fill="black"></rect><rect class="wordrect" x="82" y="60" width="1" height="1" fill="black"></rect><rect class="wordrect" x="82" y="82" width="1" height="1" fill="black"></rect><rect class="wordrect" x="83" y="83" width="1" height="1" fill="black"></rect><rect class="wordrect" x="84" y="84" width="1" height="1" fill="black"></rect><rect class="wordrect" x="84" y="86" width="1" height="1" fill="black"></rect><rect class="wordrect" x="85" y="85" width="1" height="1" fill="black"></rect><rect class="wordrect" x="86" y="84" width="1" height="1" fill="black"></rect><rect class="wordrect" x="86" y="86" width="1" height="1" fill="black"></rect><rect class="wordrect" x="87" y="21" width="1" height="1" fill="black"></rect><rect class="wordrect" x="87" y="23" width="1" height="1" fill="black"></rect><rect class="wordrect" x="87" y="25" width="1" height="1" fill="black"></rect><rect class="wordrect" x="87" y="46" width="1" height="1" fill="black"></rect><rect class="wordrect" x="87" y="48" width="1" height="1" fill="black"></rect><rect class="wordrect" x="87" y="50" width="1" height="1" fill="black"></rect><rect class="wordrect" x="87" y="52" width="1" height="1" fill="black"></rect><rect class="wordrect" x="87" y="54" width="1" height="1" fill="black"></rect><rect class="wordrect" x="87" y="56" width="1" height="1" fill="black"></rect><rect class="wordrect" x="87" y="87" width="1" height="1" fill="black"></rect><rect class="wordrect" x="87" y="89" width="1" height="1" fill="black"></rect><rect class="wordrect" x="87" y="91" width="1" height="1" fill="black"></rect><rect class="wordrect" x="88" y="22" width="1" height="1" fill="black"></rect><rect class="wordrect" x="88" y="24" width="1" height="1" fill="black"></rect><rect class="wordrect" x="88" y="26" width="1" height="1" fill="black"></rect><rect class="wordrect" x="88" y="47" width="1" height="1" fill="black"></rect><rect class="wordrect" x="88" y="49" width="1" height="1" fill="black"></rect><rect class="wordrect" x="88" y="51" width="1" height="1" fill="black"></rect><rect class="wordrect" x="88" y="53" width="1" height="1" fill="black"></rect><rect class="wordrect" x="88" y="55" width="1" height="1" fill="black"></rect><rect class="wordrect" x="88" y="57" width="1" height="1" fill="black"></rect><rect class="wordrect" x="88" y="88" width="1" height="1" fill="black"></rect><rect class="wordrect" x="88" y="90" width="1" height="1" fill="black"></rect><rect class="wordrect" x="88" y="92" width="1" height="1" fill="black"></rect><rect class="wordrect" x="89" y="21" width="1" height="1" fill="black"></rect><rect class="wordrect" x="89" y="23" width="1" height="1" fill="black"></rect><rect class="wordrect" x="89" y="25" width="1" height="1" fill="black"></rect><rect class="wordrect" x="89" y="46" width="1" height="1" fill="black"></rect><rect class="wordrect" x="89" y="48" width="1" height="1" fill="black"></rect><rect class="wordrect" x="89" y="50" width="1" height="1" fill="black"></rect><rect class="wordrect" x="89" y="52" width="1" height="1" fill="black"></rect><rect class="wordrect" x="89" y="54" width="1" height="1" fill="black"></rect><rect class="wordrect" x="89" y="56" width="1" height="1" fill="black"></rect><rect class="wordrect" x="89" y="87" width="1" height="1" fill="black"></rect><rect class="wordrect" x="89" y="89" width="1" height="1" fill="black"></rect><rect class="wordrect" x="89" y="91" width="1" height="1" fill="black"></rect><rect class="wordrect" x="90" y="22" width="1" height="1" fill="black"></rect><rect class="wordrect" x="90" y="24" width="1" height="1" fill="black"></rect><rect class="wordrect" x="90" y="26" width="1" height="1" fill="black"></rect><rect class="wordrect" x="90" y="47" width="1" height="1" fill="black"></rect><rect class="wordrect" x="90" y="49" width="1" height="1" fill="black"></rect><rect class="wordrect" x="90" y="51" width="1" height="1" fill="black"></rect><rect class="wordrect" x="90" y="53" width="1" height="1" fill="black"></rect><rect class="wordrect" x="90" y="55" width="1" height="1" fill="black"></rect><rect class="wordrect" x="90" y="57" width="1" height="1" fill="black"></rect><rect class="wordrect" x="90" y="88" width="1" height="1" fill="black"></rect><rect class="wordrect" x="90" y="90" width="1" height="1" fill="black"></rect><rect class="wordrect" x="90" y="92" width="1" height="1" fill="black"></rect><rect class="wordrect" x="91" y="21" width="1" height="1" fill="black"></rect><rect class="wordrect" x="91" y="23" width="1" height="1" fill="black"></rect><rect class="wordrect" x="91" y="25" width="1" height="1" fill="black"></rect><rect class="wordrect" x="91" y="46" width="1" height="1" fill="black"></rect><rect class="wordrect" x="91" y="48" width="1" height="1" fill="black"></rect><rect class="wordrect" x="91" y="50" width="1" height="1" fill="black"></rect><rect class="wordrect" x="91" y="52" width="1" height="1" fill="black"></rect><rect class="wordrect" x="91" y="54" width="1" height="1" fill="black"></rect><rect class="wordrect" x="91" y="56" width="1" height="1" fill="black"></rect><rect class="wordrect" x="91" y="87" width="1" height="1" fill="black"></rect><rect class="wordrect" x="91" y="89" width="1" height="1" fill="black"></rect><rect class="wordrect" x="91" y="91" width="1" height="1" fill="black"></rect><rect class="wordrect" x="92" y="22" width="1" height="1" fill="black"></rect><rect class="wordrect" x="92" y="24" width="1" height="1" fill="black"></rect><rect class="wordrect" x="92" y="26" width="1" height="1" fill="black"></rect><rect class="wordrect" x="92" y="47" width="1" height="1" fill="black"></rect><rect class="wordrect" x="92" y="49" width="1" height="1" fill="black"></rect><rect class="wordrect" x="92" y="51" width="1" height="1" fill="black"></rect><rect class="wordrect" x="92" y="53" width="1" height="1" fill="black"></rect><rect class="wordrect" x="92" y="55" width="1" height="1" fill="black"></rect><rect class="wordrect" x="92" y="57" width="1" height="1" fill="black"></rect><rect class="wordrect" x="92" y="88" width="1" height="1" fill="black"></rect><rect class="wordrect" x="92" y="90" width="1" height="1" fill="black"></rect><rect class="wordrect" x="92" y="92" width="1" height="1" fill="black"></rect></g></g></svg>