<svg class="matrix" viewBox="0 0 123 123" version="1.1" xmlns="http://www.w3.org/2000/svg"><g><g class="matrixHighlights"><!-- react-text: 116 --><!-- /react-text --><!-- react-text: 117 --> <!-- /react-text --><!-- react-text: 118 --> <!-- /react-text --></g><g><rect class="wordrect" x="0" y="0" width="1" height="1" fill="black"></rect><rect class="wordrect" x="0" y="2" width="1" height="1" fill="black"></rect><rect class="wordrect" x="0" y="24" width="1" height="1" fill="black"></rect><rect class="wordrect" x="0" y="26" width="1" height="1" fill="black"></rect><rect class="wordrect" x="0" y="49" width="1" height="1" fill="black"></rect><rect class="wordrect" x="0" y="51" width="1" height="1" fill="black"></rect><rect class="wordrect" x="0" y="74" width="1" height="1" fill="black"></rect><rect class="wordrect" x="0" y="76" width="1" height="1" fill="black"></rect><rect class="wordrect" x="0" y="99" width="1" height="1" fill="black"></rect><rect class="wordrect" x="0" y="101" width="1" height="1" fill="black"></rect><rect class="wordrect" x="1" y="1" width="1" height="1" fill="black"></rect><rect class="wordrect" x="1" y="25" width="1" height="1" fill="black"></rect><rect class="wordrect" x="1" y="50" width="1" height="1" fill="black"></rect><rect class="wordrect" x="1" y="75" width="1" height="1" fill="black"></rect><rect class="wordrect" x="1" y="100" width="1" height="1" fill="black"></rect><rect class="wordrect" x="2" y="0" width="1" height="1" fill="black"></rect><rect class="wordrect" x="2" y="2" width="1" height="1" fill="black"></rect><rect class="wordrect" x="2" y="24" width="1" height="1" fill="black"></rect><rect class="wordrect" x="2" y="26" width="1" height="1" fill="black"></rect><rect class="wordrect" x="2" y="49" width="1" height="1" fill="black"></rect><rect class="wordrect" x="2" y="51" width="1" height="1" fill="black"></rect><rect class="wordrect" x="2" y="74" width="1" height="1" fill="black"></rect><rect class="wordrect" x="2" y="76" width="1" height="1" fill="black"></rect><rect class="wordrect" x="2" y="99" width="1" height="1" fill="black"></rect><rect class="wordrect" x="2" y="101" width="1" height="1" fill="black"></rect><rect class="wordrect" x="3" y="3" width="1" height="1" fill="black"></rect><rect class="wordrect" x="3" y="27" width="1" height="1" fill="black"></rect><rect class="wordrect" x="3" y="52" width="1" height="1" fill="black"></rect><rect class="wordrect" x="3" y="77" width="1" height="1" fill="black"></rect><rect class="wordrect" x="3" y="102" width="1" height="1" fill="black"></rect><rect class="wordrect" x="4" y="4" width="1" height="1" fill="black"></rect><rect class="wordrect" x="4" y="28" width="1" height="1" fill="black"></rect><rect class="wordrect" x="4" y="53" width="1" height="1" fill="black"></rect><rect class="wordrect" x="4" y="78" width="1" height="1" fill="black"></rect><rect class="wordrect" x="4" y="103" width="1" height="1" fill="black"></rect><rect class="wordrect" x="5" y="5" width="1" height="1" fill="black"></rect><rect class="wordrect" x="5" y="29" width="1" height="1" fill="black"></rect><rect class="wordrect" x="5" y="54" width="1" height="1" fill="black"></rect><rect class="wordrect" x="5" y="79" width="1" height="1" fill="black"></rect><rect class="wordrect" x="6" y="6" width="1" height="1" fill="black"></rect><rect class="wordrect" x="6" y="55" width="1" height="1" fill="black"></rect><rect class="wordrect" x="7" y="7" width="1" height="1" fill="black"></rect><rect class="wordrect" x="7" y="31" width="1" height="1" fill="black"></rect><rect class="wordrect" x="7" y="56" width="1" height="1" fill="black"></rect><rect class="wordrect" x="7" y="81" width="1" height="1" fill="black"></rect><rect class="wordrect" x="8" y="8" width="1" height="1" fill="black"></rect><rect class="wordrect" x="8" y="32" width="1" height="1" fill="black"></rect><rect class="wordrect" x="8" y="57" width="1" height="1" fill="black"></rect><rect class="wordrect" x="8" y="82" width="1" height="1" fill="black"></rect><rect class="wordrect" x="8" y="106" width="1" height="1" fill="black"></rect><rect class="wordrect" x="9" y="9" width="1" height="1" fill="black"></rect><rect class="wordrect" x="9" y="58" width="1" height="1" fill="black"></rect><rect class="wordrect" x="9" y="67" width="1" height="1" fill="black"></rect><rect class="wordrect" x="10" y="10" width="1" height="1" fill="black"></rect><rect class="wordrect" x="10" y="34" width="1" height="1" fill="black"></rect><rect class="wordrect" x="10" y="59" width="1" height="1" fill="black"></rect><rect class="wordrect" x="10" y="84" width="1" height="1" fill="black"></rect><rect class="wordrect" x="10" y="108" width="1" height="1" fill="black"></rect><rect class="wordrect" x="11" y="11" width="1" height="1" fill="black"></rect><rect class="wordrect" x="11" y="35" width="1" height="1" fill="black"></rect><rect class="wordrect" x="11" y="60" width="1" height="1" fill="black"></rect><rect class="wordrect" x="11" y="85" width="1" height="1" fill="black"></rect><rect class="wordrect" x="11" y="109" width="1" height="1" fill="black"></rect><rect class="wordrect" x="12" y="12" width="1" height="1" fill="black"></rect><rect class="wordrect" x="12" y="36" width="1" height="1" fill="black"></rect><rect class="wordrect" x="12" y="61" width="1" height="1" fill="black"></rect><rect class="wordrect" x="12" y="86" width="1" height="1" fill="black"></rect><rect class="wordrect" x="12" y="110" width="1" height="1" fill="black"></rect><rect class="wordrect" x="13" y="13" width="1" height="1" fill="black"></rect><rect class="wordrect" x="13" y="37" width="1" height="1" fill="black"></rect><rect class="wordrect" x="13" y="62" width="1" height="1" fill="black"></rect><rect class="wordrect" x="13" y="87" width="1" height="1" fill="black"></rect><rect class="wordrect" x="13" y="111" width="1" height="1" fill="black"></rect><rect class="wordrect" x="14" y="14" width="1" height="1" fill="black"></rect><rect class="wordrect" x="14" y="38" width="1" height="1" fill="black"></rect><rect class="wordrect" x="14" y="63" width="1" height="1" fill="black"></rect><rect class="wordrect" x="14" y="88" width="1" height="1" fill="black"></rect><rect class="wordrect" x="14" y="112" width="1" height="1" fill="black"></rect><rect class="wordrect" x="15" y="15" width="1" height="1" fill="black"></rect><rect class="wordrect" x="15" y="64" width="1" height="1" fill="black"></rect><rect class="wordrect" x="16" y="16" width="1" height="1" fill="black"></rect><rect class="wordrect" x="16" y="40" width="1" height="1" fill="black"></rect><rect class="wordrect" x="16" y="65" width="1" height="1" fill="black"></rect><rect class="wordrect" x="16" y="90" width="1" height="1" fill="black"></rect><rect class="wordrect" x="17" y="17" width="1" height="1" fill="black"></rect><rect class="wordrect" x="17" y="41" width="1" height="1" fill="black"></rect><rect class="wordrect" x="17" y="66" width="1" height="1" fill="black"></rect><rect class="wordrect" x="17" y="91" width="1" height="1" fill="black"></rect><rect class="wordrect" x="18" y="18" width="1" height="1" fill="black"></rect><rect class="wordrect" x="19" y="19" width="1" height="1" fill="black"></rect><rect class="wordrect" x="20" y="20" width="1" height="1" fill="black"></rect><rect class="wordrect" x="20" y="45" width="1" height="1" fill="black"></rect><rect class="wordrect" x="20" y="70" width="1" height="1" fill="black"></rect><rect class="wordrect" x="20" y="95" width="1" height="1" fill="black"></rect><rect class="wordrect" x="20" y="119" width="1" height="1" fill="black"></rect><rect class="wordrect" x="21" y="21" width="1" height="1" fill="black"></rect><rect class="wordrect" x="22" y="22" width="1" height="1" fill="black"></rect><rect class="wordrect" x="23" y="23" width="1" height="1" fill="black"></rect><rect class="wordrect" x="23" y="48" width="1" height="1" fill="black"></rect><rect class="wordrect" x="23" y="73" width="1" height="1" fill="black"></rect><rect class="wordrect" x="23" y="98" width="1" height="1" fill="black"></rect><rect class="wordrect" x="23" y="122" width="1" height="1" fill="black"></rect><rect class="wordrect" x="24" y="0" width="1" height="1" fill="black"></rect><rect class="wordrect" x="24" y="2" width="1" height="1" fill="black"></rect><rect class="wordrect" x="24" y="24" width="1" height="1" fill="black"></rect><rect class="wordrect" x="24" y="26" width="1" height="1" fill="black"></rect><rect class="wordrect" x="24" y="49" width="1" height="1" fill="black"></rect><rect class="wordrect" x="24" y="51" width="1" height="1" fill="black"></rect><rect class="wordrect" x="24" y="74" width="1" height="1" fill="black"></rect><rect class="wordrect" x="24" y="76" width="1" height="1" fill="black"></rect><rect class="wordrect" x="24" y="99" width="1" height="1" fill="black"></rect><rect class="wordrect" x="24" y="101" width="1" height="1" fill="black"></rect><rect class="wordrect" x="25" y="1" width="1" height="1" fill="black"></rect><rect class="wordrect" x="25" y="25" width="1" height="1" fill="black"></rect><rect class="wordrect" x="25" y="50" width="1" height="1" fill="black"></rect><rect class="wordrect" x="25" y="75" width="1" height="1" fill="black"></rect><rect class="wordrect" x="25" y="100" width="1" height="1" fill="black"></rect><rect class="wordrect" x="26" y="0" width="1" height="1" fill="black"></rect><rect class="wordrect" x="26" y="2" width="1" height="1" fill="black"></rect><rect class="wordrect" x="26" y="24" width="1" height="1" fill="black"></rect><rect class="wordrect" x="26" y="26" width="1" height="1" fill="black"></rect><rect class="wordrect" x="26" y="49" width="1" height="1" fill="black"></rect><rect class="wordrect" x="26" y="51" width="1" height="1" fill="black"></rect><rect class="wordrect" x="26" y="74" width="1" height="1" fill="black"></rect><rect class="wordrect" x="26" y="76" width="1" height="1" fill="black"></rect><rect class="wordrect" x="26" y="99" width="1" height="1" fill="black"></rect><rect class="wordrect" x="26" y="101" width="1" height="1" fill="black"></rect><rect class="wordrect" x="27" y="3" width="1" height="1" fill="black"></rect><rect class="wordrect" x="27" y="27" width="1" height="1" fill="black"></rect><rect class="wordrect" x="27" y="52" width="1" height="1" fill="black"></rect><rect class="wordrect" x="27" y="77" width="1" height="1" fill="black"></rect><rect class="wordrect" x="27" y="102" width="1" height="1" fill="black"></rect><rect class="wordrect" x="28" y="4" width="1" height="1" fill="black"></rect><rect class="wordrect" x="28" y="28" width="1" height="1" fill="black"></rect><rect class="wordrect" x="28" y="53" width="1" height="1" fill="black"></rect><rect class="wordrect" x="28" y="78" width="1" height="1" fill="black"></rect><rect class="wordrect" x="28" y="103" width="1" height="1" fill="black"></rect><rect class="wordrect" x="29" y="5" width="1" height="1" fill="black"></rect><rect class="wordrect" x="29" y="29" width="1" height="1" fill="black"></rect><rect class="wordrect" x="29" y="54" width="1" height="1" fill="black"></rect><rect class="wordrect" x="29" y="79" width="1" height="1" fill="black"></rect><rect class="wordrect" x="30" y="30" width="1" height="1" fill="black"></rect><rect class="wordrect" x="30" y="80" width="1" height="1" fill="black"></rect><rect class="wordrect" x="31" y="7" width="1" height="1" fill="black"></rect><rect class="wordrect" x="31" y="31" width="1" height="1" fill="black"></rect><rect class="wordrect" x="31" y="56" width="1" height="1" fill="black"></rect><rect class="wordrect" x="31" y="81" width="1" height="1" fill="black"></rect><rect class="wordrect" x="32" y="8" width="1" height="1" fill="black"></rect><rect class="wordrect" x="32" y="32" width="1" height="1" fill="black"></rect><rect class="wordrect" x="32" y="57" width="1" height="1" fill="black"></rect><rect class="wordrect" x="32" y="82" width="1" height="1" fill="black"></rect><rect class="wordrect" x="32" y="106" width="1" height="1" fill="black"></rect><rect class="wordrect" x="33" y="33" width="1" height="1" fill="black"></rect><rect class="wordrect" x="33" y="42" width="1" height="1" fill="black"></rect><rect class="wordrect" x="33" y="83" width="1" height="1" fill="black"></rect><rect class="wordrect" x="33" y="92" width="1" height="1" fill="black"></rect><rect class="wordrect" x="34" y="10" width="1" height="1" fill="black"></rect><rect class="wordrect" x="34" y="34" width="1" height="1" fill="black"></rect><rect class="wordrect" x="34" y="59" width="1" height="1" fill="black"></rect><rect class="wordrect" x="34" y="84" width="1" height="1" fill="black"></rect><rect class="wordrect" x="34" y="108" width="1" height="1" fill="black"></rect><rect class="wordrect" x="35" y="11" width="1" height="1" fill="black"></rect><rect class="wordrect" x="35" y="35" width="1" height="1" fill="black"></rect><rect class="wordrect" x="35" y="60" width="1" height="1" fill="black"></rect><rect class="wordrect" x="35" y="85" width="1" height="1" fill="black"></rect><rect class="wordrect" x="35" y="109" width="1" height="1" fill="black"></rect><rect class="wordrect" x="36" y="12" width="1" height="1" fill="black"></rect><rect class="wordrect" x="36" y="36" width="1" height="1" fill="black"></rect><rect class="wordrect" x="36" y="61" width="1" height="1" fill="black"></rect><rect class="wordrect" x="36" y="86" width="1" height="1" fill="black"></rect><rect class="wordrect" x="36" y="110" width="1" height="1" fill="black"></rect><rect class="wordrect" x="37" y="13" width="1" height="1" fill="black"></rect><rect class="wordrect" x="37" y="37" width="1" height="1" fill="black"></rect><rect class="wordrect" x="37" y="62" width="1" height="1" fill="black"></rect><rect class="wordrect" x="37" y="87" width="1" height="1" fill="black"></rect><rect class="wordrect" x="37" y="111" width="1" height="1" fill="black"></rect><rect class="wordrect" x="38" y="14" width="1" height="1" fill="black"></rect><rect class="wordrect" x="38" y="38" width="1" height="1" fill="black"></rect><rect class="wordrect" x="38" y="63" width="1" height="1" fill="black"></rect><rect class="wordrect" x="38" y="88" width="1" height="1" fill="black"></rect><rect class="wordrect" x="38" y="112" width="1" height="1" fill="black"></rect><rect class="wordrect" x="39" y="39" width="1" height="1" fill="black"></rect><rect class="wordrect" x="39" y="89" width="1" height="1" fill="black"></rect><rect class="wordrect" x="40" y="16" width="1" height="1" fill="black"></rect><rect class="wordrect" x="40" y="40" width="1" height="1" fill="black"></rect><rect class="wordrect" x="40" y="65" width="1" height="1" fill="black"></rect><rect class="wordrect" x="40" y="90" width="1" height="1" fill="black"></rect><rect class="wordrect" x="41" y="17" width="1" height="1" fill="black"></rect><rect class="wordrect" x="41" y="41" width="1" height="1" fill="black"></rect><rect class="wordrect" x="41" y="66" width="1" height="1" fill="black"></rect><rect class="wordrect" x="41" y="91" width="1" height="1" fill="black"></rect><rect class="wordrect" x="42" y="33" width="1" height="1" fill="black"></rect><rect class="wordrect" x="42" y="42" width="1" height="1" fill="black"></rect><rect class="wordrect" x="42" y="83" width="1" height="1" fill="black"></rect><rect class="wordrect" x="42" y="92" width="1" height="1" fill="black"></rect><rect class="wordrect" x="43" y="43" width="1" height="1" fill="black"></rect><rect class="wordrect" x="43" y="68" width="1" height="1" fill="black"></rect><rect class="wordrect" x="43" y="93" width="1" height="1" fill="black"></rect><rect class="wordrect" x="43" y="117" width="1" height="1" fill="black"></rect><rect class="wordrect" x="44" y="44" width="1" height="1" fill="black"></rect><rect class="wordrect" x="44" y="69" width="1" height="1" fill="black"></rect><rect class="wordrect" x="44" y="94" width="1" height="1" fill="black"></rect><rect class="wordrect" x="44" y="118" width="1" height="1" fill="black"></rect><rect class="wordrect" x="45" y="20" width="1" height="1" fill="black"></rect><rect class="wordrect" x="45" y="45" width="1" height="1" fill="black"></rect><rect class="wordrect" x="45" y="70" width="1" height="1" fill="black"></rect><rect class="wordrect" x="45" y="95" width="1" height="1" fill="black"></rect><rect class="wordrect" x="45" y="119" width="1" height="1" fill="black"></rect><rect class="wordrect" x="46" y="46" width="1" height="1" fill="black"></rect><rect class="wordrect" x="46" y="71" width="1" height="1" fill="black"></rect><rect class="wordrect" x="46" y="96" width="1" height="1" fill="black"></rect><rect class="wordrect" x="46" y="120" width="1" height="1" fill="black"></rect><rect class="wordrect" x="47" y="47" width="1" height="1" fill="black"></rect><rect class="wordrect" x="47" y="72" width="1" height="1" fill="black"></rect><rect class="wordrect" x="47" y="97" width="1" height="1" fill="black"></rect><rect class="wordrect" x="47" y="121" width="1" height="1" fill="black"></rect><rect class="wordrect" x="48" y="23" width="1" height="1" fill="black"></rect><rect class="wordrect" x="48" y="48" width="1" height="1" fill="black"></rect><rect class="wordrect" x="48" y="73" width="1" height="1" fill="black"></rect><rect class="wordrect" x="48" y="98" width="1" height="1" fill="black"></rect><rect class="wordrect" x="48" y="122" width="1" height="1" fill="black"></rect><rect class="wordrect" x="49" y="0" width="1" height="1" fill="black"></rect><rect class="wordrect" x="49" y="2" width="1" height="1" fill="black"></rect><rect class="wordrect" x="49" y="24" width="1" height="1" fill="black"></rect><rect class="wordrect" x="49" y="26" width="1" height="1" fill="black"></rect><rect class="wordrect" x="49" y="49" width="1" height="1" fill="black"></rect><rect class="wordrect" x="49" y="51" width="1" height="1" fill="black"></rect><rect class="wordrect" x="49" y="74" width="1" height="1" fill="black"></rect><rect class="wordrect" x="49" y="76" width="1" height="1" fill="black"></rect><rect class="wordrect" x="49" y="99" width="1" height="1" fill="black"></rect><rect class="wordrect" x="49" y="101" width="1" height="1" fill="black"></rect><rect class="wordrect" x="50" y="1" width="1" height="1" fill="black"></rect><rect class="wordrect" x="50" y="25" width="1" height="1" fill="black"></rect><rect class="wordrect" x="50" y="50" width="1" height="1" fill="black"></rect><rect class="wordrect" x="50" y="75" width="1" height="1" fill="black"></rect><rect class="wordrect" x="50" y="100" width="1" height="1" fill="black"></rect><rect class="wordrect" x="51" y="0" width="1" height="1" fill="black"></rect><rect class="wordrect" x="51" y="2" width="1" height="1" fill="black"></rect><rect class="wordrect" x="51" y="24" width="1" height="1" fill="black"></rect><rect class="wordrect" x="51" y="26" width="1" height="1" fill="black"></rect><rect class="wordrect" x="51" y="49" width="1" height="1" fill="black"></rect><rect class="wordrect" x="51" y="51" width="1" height="1" fill="black"></rect><rect class="wordrect" x="51" y="74" width="1" height="1" fill="black"></rect><rect class="wordrect" x="51" y="76" width="1" height="1" fill="black"></rect><rect class="wordrect" x="51" y="99" width="1" height="1" fill="black"></rect><rect class="wordrect" x="51" y="101" width="1" height="1" fill="black"></rect><rect class="wordrect" x="52" y="3" width="1" height="1" fill="black"></rect><rect class="wordrect" x="52" y="27" width="1" height="1" fill="black"></rect><rect class="wordrect" x="52" y="52" width="1" height="1" fill="black"></rect><rect class="wordrect" x="52" y="77" width="1" height="1" fill="black"></rect><rect class="wordrect" x="52" y="102" width="1" height="1" fill="black"></rect><rect class="wordrect" x="53" y="4" width="1" height="1" fill="black"></rect><rect class="wordrect" x="53" y="28" width="1" height="1" fill="black"></rect><rect class="wordrect" x="53" y="53" width="1" height="1" fill="black"></rect><rect class="wordrect" x="53" y="78" width="1" height="1" fill="black"></rect><rect class="wordrect" x="53" y="103" width="1" height="1" fill="black"></rect><rect class="wordrect" x="54" y="5" width="1" height="1" fill="black"></rect><rect class="wordrect" x="54" y="29" width="1" height="1" fill="black"></rect><rect class="wordrect" x="54" y="54" width="1" height="1" fill="black"></rect><rect class="wordrect" x="54" y="79" width="1" height="1" fill="black"></rect><rect class="wordrect" x="55" y="6" width="1" height="1" fill="black"></rect><rect class="wordrect" x="55" y="55" width="1" height="1" fill="black"></rect><rect class="wordrect" x="56" y="7" width="1" height="1" fill="black"></rect><rect class="wordrect" x="56" y="31" width="1" height="1" fill="black"></rect><rect class="wordrect" x="56" y="56" width="1" height="1" fill="black"></rect><rect class="wordrect" x="56" y="81" width="1" height="1" fill="black"></rect><rect class="wordrect" x="57" y="8" width="1" height="1" fill="black"></rect><rect class="wordrect" x="57" y="32" width="1" height="1" fill="black"></rect><rect class="wordrect" x="57" y="57" width="1" height="1" fill="black"></rect><rect class="wordrect" x="57" y="82" width="1" height="1" fill="black"></rect><rect class="wordrect" x="57" y="106" width="1" height="1" fill="black"></rect><rect class="wordrect" x="58" y="9" width="1" height="1" fill="black"></rect><rect class="wordrect" x="58" y="58" width="1" height="1" fill="black"></rect><rect class="wordrect" x="58" y="67" width="1" height="1" fill="black"></rect><rect class="wordrect" x="59" y="10" width="1" height="1" fill="black"></rect><rect class="wordrect" x="59" y="34" width="1" height="1" fill="black"></rect><rect class="wordrect" x="59" y="59" width="1" height="1" fill="black"></rect><rect class="wordrect" x="59" y="84" width="1" height="1" fill="black"></rect><rect class="wordrect" x="59" y="108" width="1" height="1" fill="black"></rect><rect class="wordrect" x="60" y="11" width="1" height="1" fill="black"></rect><rect class="wordrect" x="60" y="35" width="1" height="1" fill="black"></rect><rect class="wordrect" x="60" y="60" width="1" height="1" fill="black"></rect><rect class="wordrect" x="60" y="85" width="1" height="1" fill="black"></rect><rect class="wordrect" x="60" y="109" width="1" height="1" fill="black"></rect><rect class="wordrect" x="61" y="12" width="1" height="1" fill="black"></rect><rect class="wordrect" x="61" y="36" width="1" height="1" fill="black"></rect><rect class="wordrect" x="61" y="61" width="1" height="1" fill="black"></rect><rect class="wordrect" x="61" y="86" width="1" height="1" fill="black"></rect><rect class="wordrect" x="61" y="110" width="1" height="1" fill="black"></rect><rect class="wordrect" x="62" y="13" width="1" height="1" fill="black"></rect><rect class="wordrect" x="62" y="37" width="1" height="1" fill="black"></rect><rect class="wordrect" x="62" y="62" width="1" height="1" fill="black"></rect><rect class="wordrect" x="62" y="87" width="1" height="1" fill="black"></rect><rect class="wordrect" x="62" y="111" width="1" height="1" fill="black"></rect><rect class="wordrect" x="63" y="14" width="1" height="1" fill="black"></rect><rect class="wordrect" x="63" y="38" width="1" height="1" fill="black"></rect><rect class="wordrect" x="63" y="63" width="1" height="1" fill="black"></rect><rect class="wordrect" x="63" y="88" width="1" height="1" fill="black"></rect><rect class="wordrect" x="63" y="112" width="1" height="1" fill="black"></rect><rect class="wordrect" x="64" y="15" width="1" height="1" fill="black"></rect><rect class="wordrect" x="64" y="64" width="1" height="1" fill="black"></rect><rect class="wordrect" x="65" y="16" width="1" height="1" fill="black"></rect><rect class="wordrect" x="65" y="40" width="1" height="1" fill="black"></rect><rect class="wordrect" x="65" y="65" width="1" height="1" fill="black"></rect><rect class="wordrect" x="65" y="90" width="1" height="1" fill="black"></rect><rect class="wordrect" x="66" y="17" width="1" height="1" fill="black"></rect><rect class="wordrect" x="66" y="41" width="1" height="1" fill="black"></rect><rect class="wordrect" x="66" y="66" width="1" height="1" fill="black"></rect><rect class="wordrect" x="66" y="91" width="1" height="1" fill="black"></rect><rect class="wordrect" x="67" y="9" width="1" height="1" fill="black"></rect><rect class="wordrect" x="67" y="58" width="1" height="1" fill="black"></rect><rect class="wordrect" x="67" y="67" width="1" height="1" fill="black"></rect><rect class="wordrect" x="68" y="43" width="1" height="1" fill="black"></rect><rect class="wordrect" x="68" y="68" width="1" height="1" fill="black"></rect><rect class="wordrect" x="68" y="93" width="1" height="1" fill="black"></rect><rect class="wordrect" x="68" y="117" width="1" height="1" fill="black"></rect><rect class="wordrect" x="69" y="44" width="1" height="1" fill="black"></rect><rect class="wordrect" x="69" y="69" width="1" height="1" fill="black"></rect><rect class="wordrect" x="69" y="94" width="1" height="1" fill="black"></rect><rect class="wordrect" x="69" y="118" width="1" height="1" fill="black"></rect><rect class="wordrect" x="70" y="20" width="1" height="1" fill="black"></rect><rect class="wordrect" x="70" y="45" width="1" height="1" fill="black"></rect><rect class="wordrect" x="70" y="70" width="1" height="1" fill="black"></rect><rect class="wordrect" x="70" y="95" width="1" height="1" fill="black"></rect><rect class="wordrect" x="70" y="119" width="1" height="1" fill="black"></rect><rect class="wordrect" x="71" y="46" width="1" height="1" fill="black"></rect><rect class="wordrect" x="71" y="71" width="1" height="1" fill="black"></rect><rect class="wordrect" x="71" y="96" width="1" height="1" fill="black"></rect><rect class="wordrect" x="71" y="120" width="1" height="1" fill="black"></rect><rect class="wordrect" x="72" y="47" width="1" height="1" fill="black"></rect><rect class="wordrect" x="72" y="72" width="1" height="1" fill="black"></rect><rect class="wordrect" x="72" y="97" width="1" height="1" fill="black"></rect><rect class="wordrect" x="72" y="121" width="1" height="1" fill="black"></rect><rect class="wordrect" x="73" y="23" width="1" height="1" fill="black"></rect><rect class="wordrect" x="73" y="48" width="1" height="1" fill="black"></rect><rect class="wordrect" x="73" y="73" width="1" height="1" fill="black"></rect><rect class="wordrect" x="73" y="98" width="1" height="1" fill="black"></rect><rect class="wordrect" x="73" y="122" width="1" height="1" fill="black"></rect><rect class="wordrect" x="74" y="0" width="1" height="1" fill="black"></rect><rect class="wordrect" x="74" y="2" width="1" height="1" fill="black"></rect><rect class="wordrect" x="74" y="24" width="1" height="1" fill="black"></rect><rect class="wordrect" x="74" y="26" width="1" height="1" fill="black"></rect><rect class="wordrect" x="74" y="49" width="1" height="1" fill="black"></rect><rect class="wordrect" x="74" y="51" width="1" height="1" fill="black"></rect><rect class="wordrect" x="74" y="74" width="1" height="1" fill="black"></rect><rect class="wordrect" x="74" y="76" width="1" height="1" fill="black"></rect><rect class="wordrect" x="74" y="99" width="1" height="1" fill="black"></rect><rect class="wordrect" x="74" y="101" width="1" height="1" fill="black"></rect><rect class="wordrect" x="75" y="1" width="1" height="1" fill="black"></rect><rect class="wordrect" x="75" y="25" width="1" height="1" fill="black"></rect><rect class="wordrect" x="75" y="50" width="1" height="1" fill="black"></rect><rect class="wordrect" x="75" y="75" width="1" height="1" fill="black"></rect><rect class="wordrect" x="75" y="100" width="1" height="1" fill="black"></rect><rect class="wordrect" x="76" y="0" width="1" height="1" fill="black"></rect><rect class="wordrect" x="76" y="2" width="1" height="1" fill="black"></rect><rect class="wordrect" x="76" y="24" width="1" height="1" fill="black"></rect><rect class="wordrect" x="76" y="26" width="1" height="1" fill="black"></rect><rect class="wordrect" x="76" y="49" width="1" height="1" fill="black"></rect><rect class="wordrect" x="76" y="51" width="1" height="1" fill="black"></rect><rect class="wordrect" x="76" y="74" width="1" height="1" fill="black"></rect><rect class="wordrect" x="76" y="76" width="1" height="1" fill="black"></rect><rect class="wordrect" x="76" y="99" width="1" height="1" fill="black"></rect><rect class="wordrect" x="76" y="101" width="1" height="1" fill="black"></rect><rect class="wordrect" x="77" y="3" width="1" height="1" fill="black"></rect><rect class="wordrect" x="77" y="27" width="1" height="1" fill="black"></rect><rect class="wordrect" x="77" y="52" width="1" height="1" fill="black"></rect><rect class="wordrect" x="77" y="77" width="1" height="1" fill="black"></rect><rect class="wordrect" x="77" y="102" width="1" height="1" fill="black"></rect><rect class="wordrect" x="78" y="4" width="1" height="1" fill="black"></rect><rect class="wordrect" x="78" y="28" width="1" height="1" fill="black"></rect><rect class="wordrect" x="78" y="53" width="1" height="1" fill="black"></rect><rect class="wordrect" x="78" y="78" width="1" height="1" fill="black"></rect><rect class="wordrect" x="78" y="103" width="1" height="1" fill="black"></rect><rect class="wordrect" x="79" y="5" width="1" height="1" fill="black"></rect><rect class="wordrect" x="79" y="29" width="1" height="1" fill="black"></rect><rect class="wordrect" x="79" y="54" width="1" height="1" fill="black"></rect><rect class="wordrect" x="79" y="79" width="1" height="1" fill="black"></rect><rect class="wordrect" x="80" y="30" width="1" height="1" fill="black"></rect><rect class="wordrect" x="80" y="80" width="1" height="1" fill="black"></rect><rect class="wordrect" x="81" y="7" width="1" height="1" fill="black"></rect><rect class="wordrect" x="81" y="31" width="1" height="1" fill="black"></rect><rect class="wordrect" x="81" y="56" width="1" height="1" fill="black"></rect><rect class="wordrect" x="81" y="81" width="1" height="1" fill="black"></rect><rect class="wordrect" x="82" y="8" width="1" height="1" fill="black"></rect><rect class="wordrect" x="82" y="32" width="1" height="1" fill="black"></rect><rect class="wordrect" x="82" y="57" width="1" height="1" fill="black"></rect><rect class="wordrect" x="82" y="82" width="1" height="1" fill="black"></rect><rect class="wordrect" x="82" y="106" width="1" height="1" fill="black"></rect><rect class="wordrect" x="83" y="33" width="1" height="1" fill="black"></rect><rect class="wordrect" x="83" y="42" width="1" height="1" fill="black"></rect><rect class="wordrect" x="83" y="83" width="1" height="1" fill="black"></rect><rect class="wordrect" x="83" y="92" width="1" height="1" fill="black"></rect><rect class="wordrect" x="84" y="10" width="1" height="1" fill="black"></rect><rect class="wordrect" x="84" y="34" width="1" height="1" fill="black"></rect><rect class="wordrect" x="84" y="59" width="1" height="1" fill="black"></rect><rect class="wordrect" x="84" y="84" width="1" height="1" fill="black"></rect><rect class="wordrect" x="84" y="108" width="1" height="1" fill="black"></rect><rect class="wordrect" x="85" y="11" width="1" height="1" fill="black"></rect><rect class="wordrect" x="85" y="35" width="1" height="1" fill="black"></rect><rect class="wordrect" x="85" y="60" width="1" height="1" fill="black"></rect><rect class="wordrect" x="85" y="85" width="1" height="1" fill="black"></rect><rect class="wordrect" x="85" y="109" width="1" height="1" fill="black"></rect><rect class="wordrect" x="86" y="12" width="1" height="1" fill="black"></rect><rect class="wordrect" x="86" y="36" width="1" height="1" fill="black"></rect><rect class="wordrect" x="86" y="61" width="1" height="1" fill="black"></rect><rect class="wordrect" x="86" y="86" width="1" height="1" fill="black"></rect><rect class="wordrect" x="86" y="110" width="1" height="1" fill="black"></rect><rect class="wordrect" x="87" y="13" width="1" height="1" fill="black"></rect><rect class="wordrect" x="87" y="37" width="1" height="1" fill="black"></rect><rect class="wordrect" x="87" y="62" width="1" height="1" fill="black"></rect><rect class="wordrect" x="87" y="87" width="1" height="1" fill="black"></rect><rect class="wordrect" x="87" y="111" width="1" height="1" fill="black"></rect><rect class="wordrect" x="88" y="14" width="1" height="1" fill="black"></rect><rect class="wordrect" x="88" y="38" width="1" height="1" fill="black"></rect><rect class="wordrect" x="88" y="63" width="1" height="1" fill="black"></rect><rect class="wordrect" x="88" y="88" width="1" height="1" fill="black"></rect><rect class="wordrect" x="88" y="112" width="1" height="1" fill="black"></rect><rect class="wordrect" x="89" y="39" width="1" height="1" fill="black"></rect><rect class="wordrect" x="89" y="89" width="1" height="1" fill="black"></rect><rect class="wordrect" x="90" y="16" width="1" height="1" fill="black"></rect><rect class="wordrect" x="90" y="40" width="1" height="1" fill="black"></rect><rect class="wordrect" x="90" y="65" width="1" height="1" fill="black"></rect><rect class="wordrect" x="90" y="90" width="1" height="1" fill="black"></rect><rect class="wordrect" x="91" y="17" width="1" height="1" fill="black"></rect><rect class="wordrect" x="91" y="41" width="1" height="1" fill="black"></rect><rect class="wordrect" x="91" y="66" width="1" height="1" fill="black"></rect><rect class="wordrect" x="91" y="91" width="1" height="1" fill="black"></rect><rect class="wordrect" x="92" y="33" width="1" height="1" fill="black"></rect><rect class="wordrect" x="92" y="42" width="1" height="1" fill="black"></rect><rect class="wordrect" x="92" y="83" width="1" height="1" fill="black"></rect><rect class="wordrect" x="92" y="92" width="1" height="1" fill="black"></rect><rect class="wordrect" x="93" y="43" width="1" height="1" fill="black"></rect><rect class="wordrect" x="93" y="68" width="1" height="1" fill="black"></rect><rect class="wordrect" x="93" y="93" width="1" height="1" fill="black"></rect><rect class="wordrect" x="93" y="117" width="1" height="1" fill="black"></rect><rect class="wordrect" x="94" y="44" width="1" height="1" fill="black"></rect><rect class="wordrect" x="94" y="69" width="1" height="1" fill="black"></rect><rect class="wordrect" x="94" y="94" width="1" height="1" fill="black"></rect><rect class="wordrect" x="94" y="118" width="1" height="1" fill="black"></rect><rect class="wordrect" x="95" y="20" width="1" height="1" fill="black"></rect><rect class="wordrect" x="95" y="45" width="1" height="1" fill="black"></rect><rect class="wordrect" x="95" y="70" width="1" height="1" fill="black"></rect><rect class="wordrect" x="95" y="95" width="1" height="1" fill="black"></rect><rect class="wordrect" x="95" y="119" width="1" height="1" fill="black"></rect><rect class="wordrect" x="96" y="46" width="1" height="1" fill="black"></rect><rect class="wordrect" x="96" y="71" width="1" height="1" fill="black"></rect><rect class="wordrect" x="96" y="96" width="1" height="1" fill="black"></rect><rect class="wordrect" x="96" y="120" width="1" height="1" fill="black"></rect><rect class="wordrect" x="97" y="47" width="1" height="1" fill="black"></rect><rect class="wordrect" x="97" y="72" width="1" height="1" fill="black"></rect><rect class="wordrect" x="97" y="97" width="1" height="1" fill="black"></rect><rect class="wordrect" x="97" y="121" width="1" height="1" fill="black"></rect><rect class="wordrect" x="98" y="23" width="1" height="1" fill="black"></rect><rect class="wordrect" x="98" y="48" width="1" height="1" fill="black"></rect><rect class="wordrect" x="98" y="73" width="1" height="1" fill="black"></rect><rect class="wordrect" x="98" y="98" width="1" height="1" fill="black"></rect><rect class="wordrect" x="98" y="122" width="1" height="1" fill="black"></rect><rect class="wordrect" x="99" y="0" width="1" height="1" fill="black"></rect><rect class="wordrect" x="99" y="2" width="1" height="1" fill="black"></rect><rect class="wordrect" x="99" y="24" width="1" height="1" fill="black"></rect><rect class="wordrect" x="99" y="26" width="1" height="1" fill="black"></rect><rect class="wordrect" x="99" y="49" width="1" height="1" fill="black"></rect><rect class="wordrect" x="99" y="51" width="1" height="1" fill="black"></rect><rect class="wordrect" x="99" y="74" width="1" height="1" fill="black"></rect><rect class="wordrect" x="99" y="76" width="1" height="1" fill="black"></rect><rect class="wordrect" x="99" y="99" width="1" height="1" fill="black"></rect><rect class="wordrect" x="99" y="101" width="1" height="1" fill="black"></rect><rect class="wordrect" x="100" y="1" width="1" height="1" fill="black"></rect><rect class="wordrect" x="100" y="25" width="1" height="1" fill="black"></rect><rect class="wordrect" x="100" y="50" width="1" height="1" fill="black"></rect><rect class="wordrect" x="100" y="75" width="1" height="1" fill="black"></rect><rect class="wordrect" x="100" y="100" width="1" height="1" fill="black"></rect><rect class="wordrect" x="101" y="0" width="1" height="1" fill="black"></rect><rect class="wordrect" x="101" y="2" width="1" height="1" fill="black"></rect><rect class="wordrect" x="101" y="24" width="1" height="1" fill="black"></rect><rect class="wordrect" x="101" y="26" width="1" height="1" fill="black"></rect><rect class="wordrect" x="101" y="49" width="1" height="1" fill="black"></rect><rect class="wordrect" x="101" y="51" width="1" height="1" fill="black"></rect><rect class="wordrect" x="101" y="74" width="1" height="1" fill="black"></rect><rect class="wordrect" x="101" y="76" width="1" height="1" fill="black"></rect><rect class="wordrect" x="101" y="99" width="1" height="1" fill="black"></rect><rect class="wordrect" x="101" y="101" width="1" height="1" fill="black"></rect><rect class="wordrect" x="102" y="3" width="1" height="1" fill="black"></rect><rect class="wordrect" x="102" y="27" width="1" height="1" fill="black"></rect><rect class="wordrect" x="102" y="52" width="1" height="1" fill="black"></rect><rect class="wordrect" x="102" y="77" width="1" height="1" fill="black"></rect><rect class="wordrect" x="102" y="102" width="1" height="1" fill="black"></rect><rect class="wordrect" x="103" y="4" width="1" height="1" fill="black"></rect><rect class="wordrect" x="103" y="28" width="1" height="1" fill="black"></rect><rect class="wordrect" x="103" y="53" width="1" height="1" fill="black"></rect><rect class="wordrect" x="103" y="78" width="1" height="1" fill="black"></rect><rect class="wordrect" x="103" y="103" width="1" height="1" fill="black"></rect><rect class="wordrect" x="104" y="104" width="1" height="1" fill="black"></rect><rect class="wordrect" x="105" y="105" width="1" height="1" fill="black"></rect><rect class="wordrect" x="106" y="8" width="1" height="1" fill="black"></rect><rect class="wordrect" x="106" y="32" width="1" height="1" fill="black"></rect><rect class="wordrect" x="106" y="57" width="1" height="1" fill="black"></rect><rect class="wordrect" x="106" y="82" width="1" height="1" fill="black"></rect><rect class="wordrect" x="106" y="106" width="1" height="1" fill="black"></rect><rect class="wordrect" x="107" y="107" width="1" height="1" fill="black"></rect><rect class="wordrect" x="107" y="116" width="1" height="1" fill="black"></rect><rect class="wordrect" x="108" y="10" width="1" height="1" fill="black"></rect><rect class="wordrect" x="108" y="34" width="1" height="1" fill="black"></rect><rect class="wordrect" x="108" y="59" width="1" height="1" fill="black"></rect><rect class="wordrect" x="108" y="84" width="1" height="1" fill="black"></rect><rect class="wordrect" x="108" y="108" width="1" height="1" fill="black"></rect><rect class="wordrect" x="109" y="11" width="1" height="1" fill="black"></rect><rect class="wordrect" x="109" y="35" width="1" height="1" fill="black"></rect><rect class="wordrect" x="109" y="60" width="1" height="1" fill="black"></rect><rect class="wordrect" x="109" y="85" width="1" height="1" fill="black"></rect><rect class="wordrect" x="109" y="109" width="1" height="1" fill="black"></rect><rect class="wordrect" x="110" y="12" width="1" height="1" fill="black"></rect><rect class="wordrect" x="110" y="36" width="1" height="1" fill="black"></rect><rect class="wordrect" x="110" y="61" width="1" height="1" fill="black"></rect><rect class="wordrect" x="110" y="86" width="1" height="1" fill="black"></rect><rect class="wordrect" x="110" y="110" width="1" height="1" fill="black"></rect><rect class="wordrect" x="111" y="13" width="1" height="1" fill="black"></rect><rect class="wordrect" x="111" y="37" width="1" height="1" fill="black"></rect><rect class="wordrect" x="111" y="62" width="1" height="1" fill="black"></rect><rect class="wordrect" x="111" y="87" width="1" height="1" fill="black"></rect><rect class="wordrect" x="111" y="111" width="1" height="1" fill="black"></rect><rect class="wordrect" x="112" y="14" width="1" height="1" fill="black"></rect><rect class="wordrect" x="112" y="38" width="1" height="1" fill="black"></rect><rect class="wordrect" x="112" y="63" width="1" height="1" fill="black"></rect><rect class="wordrect" x="112" y="88" width="1" height="1" fill="black"></rect><rect class="wordrect" x="112" y="112" width="1" height="1" fill="black"></rect><rect class="wordrect" x="113" y="113" width="1" height="1" fill="black"></rect><rect class="wordrect" x="114" y="114" width="1" height="1" fill="black"></rect><rect class="wordrect" x="115" y="115" width="1" height="1" fill="black"></rect><rect class="wordrect" x="116" y="107" width="1" height="1" fill="black"></rect><rect class="wordrect" x="116" y="116" width="1" height="1" fill="black"></rect><rect class="wordrect" x="117" y="43" width="1" height="1" fill="black"></rect><rect class="wordrect" x="117" y="68" width="1" height="1" fill="black"></rect><rect class="wordrect" x="117" y="93" width="1" height="1" fill="black"></rect><rect class="wordrect" x="117" y="117" width="1" height="1" fill="black"></rect><rect class="wordrect" x="118" y="44" width="1" height="1" fill="black"></rect><rect class="wordrect" x="118" y="69" width="1" height="1" fill="black"></rect><rect class="wordrect" x="118" y="94" width="1" height="1" fill="black"></rect><rect class="wordrect" x="118" y="118" width="1" height="1" fill="black"></rect><rect class="wordrect" x="119" y="20" width="1" height="1" fill="black"></rect><rect class="wordrect" x="119" y="45" width="1" height="1" fill="black"></rect><rect class="wordrect" x="119" y="70" width="1" height="1" fill="black"></rect><rect class="wordrect" x="119" y="95" width="1" height="1" fill="black"></rect><rect class="wordrect" x="119" y="119" width="1" height="1" fill="black"></rect><rect class="wordrect" x="120" y="46" width="1" height="1" fill="black"></rect><rect class="wordrect" x="120" y="71" width="1" height="1" fill="black"></rect><rect class="wordrect" x="120" y="96" width="1" height="1" fill="black"></rect><rect class="wordrect" x="120" y="120" width="1" height="1" fill="black"></rect><rect class="wordrect" x="121" y="47" width="1" height="1" fill="black"></rect><rect class="wordrect" x="121" y="72" width="1" height="1" fill="black"></rect><rect class="wordrect" x="121" y="97" width="1" height="1" fill="black"></rect><rect class="wordrect" x="121" y="121" width="1" height="1" fill="black"></rect><rect class="wordrect" x="122" y="23" width="1" height="1" fill="black"></rect><rect class="wordrect" x="122" y="48" width="1" height="1" fill="black"></rect><rect class="wordrect" x="122" y="73" width="1" height="1" fill="black"></rect><rect class="wordrect" x="122" y="98" width="1" height="1" fill="black"></rect><rect class="wordrect" x="122" y="122" width="1" height="1" fill="black"></rect></g></g></svg>