<?xml version="1.0" encoding="utf-8"?>
<!-- Generator: Adobe Illustrator 17.0.0, SVG Export Plug-In . SVG Version: 6.00 Build 0)  -->
<!DOCTYPE svg PUBLIC "-//W3C//DTD SVG 1.1//EN" "http://www.w3.org/Graphics/SVG/1.1/DTD/svg11.dtd">
<svg version="1.1" id="Layer_1" xmlns="http://www.w3.org/2000/svg" xmlns:xlink="http://www.w3.org/1999/xlink" x="0px" y="0px"
	 width="35px" height="35px" viewBox="0 0 35 35" enable-background="new 0 0 35 35" xml:space="preserve">
<g>
	<rect x="0" y="0" fill="none" width="35" height="35"/>
	<path fill-rule="evenodd" clip-rule="evenodd" fill="#7A98CB" d="M17.499,7.605c-5.602,0-10.145,4.542-10.145,10.146
		c0,4.482,2.907,8.285,6.939,9.627c0.507,0.093,0.692-0.22,0.692-0.489c0-0.241-0.009-0.879-0.014-1.726
		c-2.822,0.613-3.418-1.36-3.418-1.36c-0.461-1.172-1.126-1.484-1.126-1.484c-0.921-0.63,0.07-0.617,0.07-0.617
		c1.018,0.072,1.554,1.046,1.554,1.046c0.905,1.55,2.375,1.103,2.953,0.843c0.092-0.656,0.354-1.103,0.644-1.356
		c-2.253-0.256-4.621-1.126-4.621-5.014c0-1.108,0.395-2.013,1.044-2.722c-0.104-0.257-0.452-1.288,0.099-2.685
		c0,0,0.852-0.273,2.79,1.04c0.809-0.225,1.677-0.338,2.54-0.342c0.862,0.004,1.73,0.116,2.54,0.342
		c1.937-1.313,2.787-1.04,2.787-1.04c0.554,1.397,0.205,2.428,0.101,2.685c0.65,0.709,1.043,1.615,1.043,2.722
		c0,3.898-2.372,4.755-4.632,5.006c0.364,0.313,0.689,0.932,0.689,1.879c0,1.356-0.012,2.451-0.012,2.783
		c0,0.271,0.183,0.587,0.698,0.488c4.028-1.344,6.932-5.145,6.932-9.625C27.646,12.147,23.103,7.605,17.499,7.605z"/>
</g>
</svg>
